
<svg width="171" height="40" viewBox="0 0 171 40" xmlns="http://www.w3.org/2000/svg" xmlns:xlink="http://www.w3.org/1999/xlink"><title>DDFC96D0-86A7-47EC-9D7C-3E32525D578E</title><defs><path id="a" d="M84.247 39.255H0V.307h84.247z"/><path id="c" d="M13.084 33.72V.517H.85v33.201z"/></defs><g fill="none" fill-rule="evenodd"><mask id="b" fill="#fff"><use xlink:href="#a"/></mask><path d="M79.755 24.69c-.064.353-.256.609-.545.801-.29.194-.545.29-.801.385-.546.194-1.124.386-1.734.61-.608.225-1.187.45-1.732.61-.642.225-1.251.417-1.797.64-.416.194-.832.418-1.218.74-.322.288-.61.641-.868 1.091-.256.448-.383.993-.383 1.667 0 1.348.32 2.343.962 3.016.64.642 1.828.994 3.561.994 1.764 0 2.984-.352 3.625-1.026.641-.706.962-1.669.962-2.952v-6.577h-.032zM75.2 10.604c3.11 0 5.39.61 6.866 1.83 1.443 1.218 2.181 2.758 2.181 4.588v15.719c0 .642-.128 1.349-.353 2.086-.225.77-.674 1.475-1.348 2.085-.674.641-1.604 1.156-2.76 1.603-1.153.419-2.693.643-4.554.643-1.892 0-3.401-.224-4.555-.643-1.155-.416-2.086-.962-2.76-1.603-.674-.64-1.122-1.348-1.347-2.085-.224-.771-.354-1.476-.354-2.086V30.24c0-1.348.354-2.567 1.027-3.657.707-1.092 1.669-1.894 2.951-2.343.644-.225 1.35-.45 2.183-.738.802-.289 1.604-.544 2.375-.833.769-.257 1.41-.514 1.987-.707.579-.223.93-.32 1.06-.384.128-.064.32-.161.546-.29.223-.126.449-.32.674-.545.223-.257.383-.546.545-.834.16-.32.223-.705.223-1.122v-.995c0-.353-.063-.706-.223-1.09-.13-.386-.386-.708-.739-1.028-.352-.32-.835-.577-1.412-.77-.576-.192-1.315-.288-2.213-.288-1.765 0-2.952.352-3.594 1.09a3.904 3.904 0 0 0-.93 2.31c0 .194-.16.322-.352.322h-3.85a.356.356 0 0 1-.353-.353v-.93c0-.898.16-1.733.514-2.503.32-.77.866-1.476 1.636-2.053.738-.578 1.668-1.06 2.822-1.38 1.155-.32 2.503-.514 4.107-.514zM13.636 24.689c-.066.354-.258.61-.546.802a3.53 3.53 0 0 1-.803.385c-.546.194-1.123.386-1.733.61-.61.225-1.187.45-1.731.61-.643.225-1.252.417-1.797.64-.417.194-.834.418-1.22.74a4.33 4.33 0 0 0-.865 1.091c-.257.448-.386.993-.386 1.667 0 1.348.322 2.343.964 3.016.641.642 1.828.994 3.56.994 1.764 0 2.984-.352 3.626-1.026.641-.706.962-1.669.962-2.952v-6.577h-.031zM9.078 10.605c3.113 0 5.39.61 6.866 1.83 1.444 1.218 2.182 2.758 2.182 4.588v15.719c0 .642-.128 1.349-.353 2.086-.224.77-.674 1.475-1.346 2.085-.674.641-1.605 1.156-2.76 1.603-1.155.419-2.694.643-4.555.643-1.895 0-3.402-.224-4.557-.643-1.154-.416-2.084-.962-2.759-1.603-.674-.64-1.122-1.348-1.346-2.085-.225-.771-.353-1.476-.353-2.086V30.24a6.84 6.84 0 0 1 1.025-3.657c.706-1.092 1.67-1.894 2.952-2.343.642-.225 1.347-.45 2.182-.738.802-.289 1.604-.544 2.375-.833.769-.257 1.411-.514 1.989-.707.577-.223.93-.32 1.058-.384s.32-.161.546-.29c.225-.126.447-.32.672-.545.225-.257.385-.546.546-.834.16-.32.225-.705.225-1.122v-.995a2.75 2.75 0 0 0-.225-1.09c-.127-.386-.385-.708-.737-1.028-.354-.32-.835-.577-1.412-.77-.578-.192-1.316-.288-2.215-.288-1.762 0-2.95.352-3.592 1.09a3.923 3.923 0 0 0-.931 2.31c0 .194-.16.322-.352.322H.352A.357.357 0 0 1 0 17.985v-.93c0-.898.16-1.733.513-2.503.322-.77.867-1.476 1.635-2.053.74-.578 1.67-1.06 2.825-1.38 1.123-.32 2.502-.514 4.105-.514zm52.455 0H64.1c.225 0 .386.225.32.45l-.866 3.336c-.03.161-.19.257-.32.257h-1.797c-.961 0-1.73.128-2.34.385-.578.256-1.06.545-1.381.898-.32.352-.513.707-.61 1.06a4.35 4.35 0 0 0-.127 1.058v20.853c0 .193-.16.353-.354.353h-3.849a.357.357 0 0 1-.354-.353V17.15c0-.384.065-.961.225-1.699.13-.738.514-1.443 1.124-2.183.608-.705 1.507-1.346 2.727-1.859 1.187-.546 2.888-.803 5.036-.803zM48.541 31.749v.961c0 .416-.065.995-.225 1.733-.13.705-.514 1.444-1.124 2.15-.61.705-1.507 1.346-2.727 1.86-1.218.513-2.888.77-5.036.77-2.15 0-3.817-.257-5.037-.77-1.22-.514-2.117-1.124-2.728-1.86-.61-.706-.994-1.445-1.121-2.182-.13-.739-.225-1.285-.225-1.7V10.958c0-.193.16-.354.352-.354h3.818c.193 0 .353.16.353.354v20.37c0 .676.096 1.156.192 1.542.097.385.29.77.579 1.09.288.352.736.641 1.346.867.577.225 1.38.353 2.374.353 1.027 0 1.86-.128 2.47-.353.61-.226 1.06-.515 1.38-.835.321-.32.546-.673.642-1.058.095-.386.225-.706.225-1.637V10.96c0-.193.16-.354.352-.354h3.817c.194 0 .354.16.354.354v20.79h-.03zM22.297.307h3.818c.192 0 .352.16.352.353v38.21c0 .192-.16.353-.352.353h-3.818a.357.357 0 0 1-.354-.354V.66c0-.192.161-.353.354-.353z" fill="#E7F1F6" mask="url(#b)"/><path d="M102.398 17.976v-.428c0-1.66-.247-2.76-.741-3.3-.496-.538-1.559-.807-3.19-.807H94.97c-1.63 0-2.692.27-3.188.807-.495.54-.744 1.64-.744 3.3v2.185c0 1.658.249 2.744.744 3.253.496.51 1.558.764 3.188.764h3.495c2.419 0 4.114.482 5.09 1.444.975.96 1.463 2.634 1.463 5.022V32.4c0 2.39-.488 4.078-1.463 5.066-.976.992-2.671 1.487-5.09 1.487H94.97c-2.416 0-4.113-.495-5.088-1.487-.976-.988-1.465-2.677-1.465-5.066v-.428h2.621v.428c0 1.66.249 2.76.744 3.299.496.539 1.558.808 3.188.808h3.495c1.632 0 2.695-.27 3.19-.808.495-.54.742-1.639.742-3.3v-2.184c0-1.658-.247-2.744-.741-3.255-.496-.509-1.559-.764-3.19-.764H94.97c-2.416 0-4.113-.48-5.088-1.44-.976-.962-1.465-2.637-1.465-5.024v-2.185c0-2.388.489-4.077 1.465-5.068.975-.99 2.672-1.485 5.088-1.485h3.495c2.419 0 4.114.495 5.09 1.485.975.99 1.463 2.68 1.463 5.068v.428h-2.62z" fill="#F6543B"/><path d="M120.553 36.508v2.446h-5.68c-2.416 0-4.112-.495-5.088-1.486-.977-.988-1.465-2.678-1.465-5.067V5.752h2.622v5.243h9.175v2.446h-9.175V32.4c0 1.66.247 2.76.743 3.299.496.539 1.558.808 3.189.808h5.679z" fill="#FAC900"/><path d="M136.57 26.198h-7.427c-1.63 0-2.691.254-3.187.764s-.743 1.596-.743 3.254v2.185c0 1.66.247 2.76.743 3.299.496.54 1.557.809 3.187.809h3.495c1.632 0 2.696-.27 3.19-.809.496-.54.742-1.638.742-3.299v-6.203zm1.16-13.717c.974.989 1.462 2.678 1.462 5.068V32.4c0 2.388-.488 4.078-1.462 5.067-.977.992-2.674 1.486-5.092 1.486h-3.495c-2.415 0-4.112-.494-5.087-1.486-.978-.99-1.466-2.679-1.466-5.067v-2.185c0-2.388.488-4.061 1.466-5.023.975-.96 2.672-1.442 5.087-1.442h7.427v-6.202c0-1.661-.246-2.761-.742-3.3-.494-.538-1.558-.808-3.19-.808h-3.495c-1.63 0-2.691.27-3.187.807-.496.54-.743 1.64-.743 3.3v.428h-2.623v-.427c0-2.39.488-4.08 1.466-5.068.975-.99 2.672-1.485 5.087-1.485h3.495c2.418 0 4.115.494 5.092 1.485z" fill="#4EBFE9"/><path d="M154.61 13.441h-5.68c-1.63 0-2.692.27-3.187.807-.496.54-.745 1.64-.745 3.3v21.406h-2.622V17.548c0-2.389.488-4.078 1.466-5.067.976-.991 2.672-1.486 5.088-1.486h5.68v2.446z" fill="#C75EEB"/><g transform="translate(157.02 5.235)"><mask id="d" fill="#fff"><use xlink:href="#c"/></mask><path d="M13.085 31.274v2.445h-5.68c-2.417 0-4.113-.494-5.09-1.486-.975-.988-1.464-2.677-1.464-5.066V.517h2.621v5.244h9.176v2.445H3.472v18.96c0 1.661.249 2.76.745 3.3.495.538 1.557.808 3.187.808h5.68z" fill="#61E061" mask="url(#d)"/></g></g></svg>