<svg version="1" xmlns="http://www.w3.org/2000/svg" viewBox="0 0 1800 800"><path fill="#181828" d="M-550-300h3000v792.6H-550V-300z"/><path fill="#24243A" d="M496.867-244.777v11.6m5.8-5.8h-11.6m826.738 38.4v7.4m3.7-3.7h-7.4"/><path fill="#1A1A28" d="M1656.376 377.714c-8.5-6.9-15.7-13.9-20.8-18.1-2.8-2.3-5.1-3.7-6.6-3.7-5.5 0-21.7-6.9-24.5-8.1-.3-.1-.4-.2-.4-.2s-5.5.2-8.6 1c-18.1 4.5-7.3 11.8-23.6 11.8-.3 0-.6 0-.9-.1-15.8-1.6-25.7-47.2-40.8-52.5-15.4-5.4-31.7-17.2-43.5-20.8s-18.1-14.5-26.3-22.7c-1.2-1.2-2.7-2.1-4.4-2.6-9.5-3.1-24.7 3.6-30.1 9-6.4 6.3-28.1 0-35.4 7.3-1.8 1.8-3.1 2.8-4.1 3.4-.8.4-1.5.6-2.2.7-2.2.3-4.8-.4-11.8 2.3-18.5 7.2-41.6 64.3-44.2 71l-.3.6s-16.4-2.4-20.8-5.4c-5.4-3.7-12.7-18.1-19-18.1-5.6 0-20.3-4.2-28.1-9.6-.1-.1-.2-.2-.3-.2v36.4l.3.3v101.9h411.4v-72.9c-5.4-3.3-10.4-6.9-15-10.7z"/><path fill="#1D1D2D" d="M1352.478 375.414l-23.7-19.4-.8-.8c-.1-.1-.1-.1-.2-.1-1.6-.2-16.5-2.5-20.7-5.4-5.4-3.8-12.7-18.1-19-18.1-5.6 0-20.3-4.2-28.1-9.6v36.4c8 6 16.3 11.2 19 11.2 3.2 0 14.2 10.5 20.6 16.9 3.2 3.2 7.2 5.4 11.6 6.4l32 7.4c.3.1.5-.1.5-.4v-2.4c0-2.4-.5-4.7-1.5-6.9-2.5-5.6 1-12.5 7.6-13.3l2.2-.2c.8-.1 1.1-1.2.5-1.7zm110.3-78.3c.1.5.4 1.1.7 1.5l.1.1 28.1 18.7c1.3.9 2 2.5 1.6 4-1 4.5-3.3 13.4-3.2 13.7l8.2 20.9c.1.2-2.3 10.1-3.3 14.4-.3 1.2.1 2.4 1 3.2l.1.1 32.8 21s.1 0 .1.1c.8.9 16.9 15.6 19.1 19.3.7 1.1 1.9 1.8 3.2 1.7l10.6-2h.3c.4.2.8.3 1.3.4l49.6 6c1 .1 1.9-.9 1.5-1.9l-7.5-22.4c-.6-1.7-1.9-2.9-3.6-3.4l-22.5-6.4c-.1 0-.2-.1-.3-.3l-9.7-24.6c-.2-.4-.3-.8-.3-1.2 0-.2-.2-.4-.4-.4-15.5-2.4-25.4-47.2-40.4-52.5-15.4-5.4-31.7-17.2-43.5-20.9s-18.1-14.5-26.3-22.7c-1-1-2.2-1.8-3.5-2.3-.2-.1-.3 0-.5.1-1 .9-1.5 2.4-1.2 3.8l7.9 32zm208.7 85.9v5.3c-.1 0-.1-.1-.2-.1v11.4l-5.1-4.7c-.2-.3-12.7-6-13.6-6.3h-.1l-31.1-20.7c-.4-.1-.7-.3-.9-.6l-15.7-18.9c-.1-.2-.3-.3-.4-.5-.2-.3-.3-.7-.4-1.1 0 0 19 8.3 24.9 8.3 2.1 0 4.1 1.8 6.6 4.6 4.3 4.8 10.1 12.5 20.8 18.1 4 2.1 8.8 3.9 14.4 5.1.2 0 .4.1.5.1h.3zm-271.3-51.5c.2.3.4.6.7.8 6.1 3.5 25.8 13.8 25.8 13.8 1.1.7 1.4.6 1.9-.5l3.2-6.2c.2-.3.2-.7.1-1l-4.3-19.2c-.1-.4-.3-.8-.7-1l-24.6-17.3c-.5-.3-.7-.8-.8-1.3l-.2-7.2c0-.4-.2-.9-.6-1.2l-15-10.3c-.1-.1-.3-.1-.4 0-.3.1-.6.2-.9.2-.2 0-.4.2-.4.4v18.5c0 .2.1.5.2.7l16 30.8zm-140.268-9.6l-46.8 15.2-7 18.9s-14 11.2-23.2 14l-11.2 19-4.2 20.3 92.4 51.8v-139.2z"/><path fill="#1A1A28" d="M1259.91 359.214l-18-3.9-5.6-13.4h-14.8l-8.4-4.8-7 19-23.1 14-11.3 19-4.2 20.2 92.4 51.8v-101.9z"/><path fill="#F28B0F" d="M676.6 534.8c-1.1.3-2.3.5-3.9.5-1.9 0-3.3-.3-4.4-.7 2.7 0 5.5.1 8.3.2z"/><path fill="#1A1A28" d="M1022.4 402.1l-11.5-.9s11.7-7.5-7.6 2.9c-19.3 10.4 1.6-18.3-11.8-18.3s-8.3 10.4-55.9 0-88.5-65.7-100.4-65.7c-9.8 0-40.9-13.6-40.9-13.6s-8.9.4-14.1 1.7c-29.8 7.4-11.9 19.3-38.7 19.3-26.8 0-43.2-77.4-68.5-86.3-25.3-8.9-52.1-28.3-71.4-34.2-19.4-5.9-29.8-23.8-43.2-37.2s-46.1 0-56.5 10.4-46.1 0-58 11.9-9.6 2.6-29.8 10.4c-32.3 12.4-73 117.5-73 117.5s-27-3.9-34.2-8.9c-8.9-6.2-20.8-29.8-31.3-29.8-9.2 0-33.4-6.9-46.1-15.7-.2-.1-.4-.3-.6-.4v59.7c.2.1.4.3.6.4v167.2h789.9c3.1-21.4 4.8-43.2 4.8-65.5 0-9.2.5-14.2 1.1-16.5-.8-2-1.7-4.9-2.9-8.4z"/><path fill="#1D1D2D" d="M381.5 351.9L342.7 320h-.1l-1.3-1.3c-.1-.1-.2-.2-.4-.2-2.6-.4-27.1-4.1-34-8.9-8.9-6.2-20.8-29.8-31.3-29.8-9.2 0-33.4-6.9-46.1-15.7v59.8c13.1 9.8 26.7 18.4 31.2 18.4 5.2 0 23.3 17.3 33.9 27.8 5.2 5.2 11.8 8.9 19 10.5l52.5 12.1c.4.1.9-.2.9-.7v-4c0-3.9-.9-7.7-2.4-11.3-4-9.2 1.7-20.4 12.4-21.8l3.6-.4c1.4 0 1.9-1.7.9-2.6zm181-128.5c.2.9.6 1.7 1.2 2.5l.2.2 46.2 30.7c2.2 1.4 3.2 4.1 2.6 6.6-1.7 7.5-5.4 22-5.2 22.5l13.4 34.2c.2.4-3.8 16.5-5.4 23.6-.4 1.9.2 3.9 1.6 5.2l.1.1 53.9 34.5c.1 0 .1.1.1.1 1.4 1.5 27.8 25.6 31.3 31.7 1.1 1.9 3.1 2.9 5.2 2.7l17.4-3.3c.1 0 .3 0 .4.1.7.3 1.4.5 2.1.6l81.4 9.8c1.7.2 3.1-1.4 2.5-3.1l-12.3-36.8c-.9-2.7-3.1-4.8-5.9-5.6l-36.9-10.5c-.2-.1-.4-.2-.5-.4L740 328.4c-.3-.6-.4-1.3-.5-2 0-.3-.3-.6-.6-.6-25.5-4-41.7-77.4-66.3-86.1-25.3-8.9-52.1-28.3-71.4-34.2-19.3-6-29.8-23.8-43.2-37.2-1.6-1.6-3.6-2.9-5.7-3.8-.2-.1-.5-.1-.7.1-1.7 1.5-2.5 3.9-2 6.3l12.9 52.5zM794.3 305c.2.9.6 1.8 1.3 2.6l25.7 31.1c.4.5.9.8 1.5 1l51.1 33.9.1.1c1.4.5 21.9 9.9 22.3 10.4l17.8 16.3c.1.1.2.1.3.2 2.2.4 20.4-.2 22-.1h.2l27-5.3h.2c2.3.3 4.1-2.1 3.2-4.3l-16.4 6.8c-.5-1.1 1.2 0 0 0l-12.7-4.8c-1.3 0-21.7 31.3-10.4 2.8l-7.6 4.1c0-.1 0 .1 0 0 0-.4-20.1 21.8-5.3-17.8.2-.4 5.7 2.1 5.3 2.4-7.4 4 3.2-16-16-20.2-47.6-10.4-56.7-45.6-68.6-45.6-9.9 0-41-13.6-41-13.6zm-334.5-25.2c.3.5.7.9 1.2 1.2 10 5.8 42.4 22.6 42.4 22.6 1.9 1.1 2.3 1 3.2-.7l5.3-10.2c.3-.5.3-1.1.2-1.6l-7-31.5c-.1-.6-.6-1.2-1.2-1.7l-40.6-28.3c-.8-.5-1.2-1.3-1.2-2.1l-.3-11.9c0-.7-.4-1.4-1-1.9l-24.7-16.8c-.2-.1-.4-.2-.6-.1-.5.2-1 .3-1.5.4-.3.1-.6.4-.6.7v30.4c0 .4.1.8.3 1.1l26.1 50.4z"/><path fill="#1A1A28" d="M78.4 354.6l3.6.4c10.7 1.4 16.4 12.7 12.4 21.8-1.6 3.6-2.4 7.4-2.4 11.3v4c0 .5.4.8.9.7l52.5-12.1c7.2-1.7 13.8-5.3 19-10.5 10.6-10.5 28.7-27.8 33.9-27.8 4.5 0 18.1-8.6 31.2-18.4v-59.8c-12.7 8.8-36.9 15.7-46.1 15.7-10.4 0-22.4 23.6-31.3 29.8-6.9 4.8-31.4 8.5-34 8.9-.1 0-.3.1-.4.2l-1.3 1.3h-.1L77.5 352c-1 .8-.5 2.5.9 2.6z"/><path fill="#F4840D" d="M1492.6 372.8v.3c-108 4.9-215.6 23.4-323.5 12.7-69.9-7-138.2-18.6-208.6-19.3-62.4-.6-123.8 8.1-186 11.1-64.7 3.1-128.4-5.7-191.9-14.4-54.7-7.5-109.4-15.1-164.8-15.1-49.4 0-98.7 0-148.1.1h-818v472h3000V372.8h-959.1"/><path fill="#DD6310" d="M289.494 361.966s-25.4 19.6-15.8 30.9c9.5 11.3 58.6 0 58.3 12.5s11.1 18.5 29 13.4c18-5.1 32.5-3 23.1 13.8-9.3 16.8-25.4 37.9 0 42.1s41.2-12.6 109.1-5.3c67.9 7.4 136.5 10.5 136.4-9s15.9-25.8 26.3-21.6 39 1.3 35.7-16.7-3-30.4 7.4-30.5 32.6-14 32.6-14-183.7-39.6-442.1-15.6z"/><path fill="#F27210" d="M287.394 357.666s-25.4 19.6-15.8 30.9c9.5 11.3 58.6 0 58.3 12.5s11.1 18.5 29 13.4 32.5-3 23.1 13.8c-9.3 16.8-25.4 37.9 0 42.1s41.2-12.6 109.1-5.3c67.9 7.4 136.5 10.5 136.4-9s15.9-25.8 26.3-21.6 39 1.3 35.7-16.7c-3.2-18-3-30.4 7.4-30.5s28.3-11.1 28.3-11.1-179.4-42.5-437.8-18.5z"/><path fill="#FED99C" d="M476.946 372.88v1h-164.8v-1c.1-9.4 1.7-18.6 5-27.5l.5-1.3.2-.6c3.6-9.2 8.8-17.5 15.4-24.9h-.1l1.6-1.7.3-.3c6.5-6.8 13.9-12.3 22.2-16.5h-.3l4.2-1.9c9.9-4.4 20.5-6.8 31.5-7h3.5c5.5.1 10.9.8 16.1 1.9 5.3 1.2 10.4 2.9 15.4 5.1l4.2 1.9h-.3c8.3 4.2 15.7 9.7 22.2 16.5l.3.3 1.6 1.7h-.1c6.6 7.3 11.8 15.7 15.4 24.9l.2.6.5 1.3c3.6 8.9 5.3 18.1 5.3 27.5z"/><path fill="#BB8B6A" d="M368.246 342.28h14.1v5.9h-14.1v-5.9zm-26.8 0h11.3v5.9h-11.3v-5.9zm-19 5.9h8.5v-5.9h-7l-1.5 5.9z"/><path fill="#EDE2DC" d="M454.946 339.78v33.8h-23.1v-33.8c0-6.4 5.2-11.6 11.6-11.6 3.2 0 6.1 1.3 8.2 3.4 2 2.1 3.3 5 3.3 8.2z"/><path fill="#623A2F" d="M453.746 339.88v33.7h-20.7v-33.7c0-1.5.3-3 1-4.3 1.6-3.5 5.2-6 9.4-6 2.9 0 5.4 1.2 7.3 3 1.9 1.8 3 4.4 3 7.3z"/><path fill="#90695E" d="M451.446 341.68v31.8h-18.4v-33.5c0-1.6.3-3 1-4.3 1.8-2.3 4.5-3.7 7.7-3.7 2.7 0 5.1 1.1 6.9 2.9 1.7 1.7 2.8 4.1 2.8 6.8z"/><path fill="#623A2F" d="M437.346 340.38h11v6.5h-11v-6.5zm0 8.2h11v22.5h-11v-22.5z"/><path opacity=".3" fill="#D89E64" d="M430.546 336.88c-7.4 4.9-13.2 7.9-21.5 7.9-18.9 0-34.1-15.3-34.1-34.1 0-6.7 2-13.1 5.3-18.4-6.6 1.1-12.9 3.4-19 5.5v.1l-4.2 2h.3c-8.3 5.3-15.7 9.5-22.2 16.8l-.3.4-1.6 1.7h.1c-6.6 7.4-11.8 15.8-15.4 25.3l-.2.7-.5 1.4c-3.2 8.4-4.9 18-5 27.4v1h118.4l-.1-37.7z"/><path fill="#D89E64" d="M442.946 328.28c0-.2-1.4-20.8-25.7-32.8l.5-.9c13 6.4 19.4 15.2 22.5 21.5 3.4 6.8 3.7 12 3.7 12.2h-1z"/><path fill="#DB5012" d="M299.016 379.537s.5-12.8 5.4-12.8 9.4-5.9 9.4-5.9 13.3 2 13.3 4.4 6.9 6.9 6.9 8.9v7.4h-35v-2z"/><path fill="#EF5B0E" d="M334.016 381.037v-6.9c0-2-6.9-6.4-6.9-8.9 0-1.9-7.6-3.4-11.3-4.1l2.9 10s6.1 7.9 8.5 10.3h5c.6-.1 1.2-.3 1.8-.4z"/><path fill="#DB5012" d="M330.816 382.137s.2-6.4 2.7-6.4 4.7-3 4.7-3 6.7 1 6.7 2.2 3.4 3.4 3.4 4.4v3.7h-17.5v-.9z"/><path fill="#EF5B0E" d="M348.316 382.837v-3.5c0-1-3.4-3.2-3.4-4.4 0-.9-3.8-1.7-5.7-2.1l1.5 5s3.1 3.9 4.2 5.2h2.5c.3 0 .6-.1.9-.2z"/><path fill="#DB5012" d="M357.616 394.237h47.9v-19l-13.2-11.6h-14l-7.4 5.8s-4.1 1.7-9.9 1.7c-5.8 0-12.4 4.1-12.4 4.1v3.3l-4.1 7.4 4.1 8.3h9z"/><path fill="#EF5B0E" d="M405.516 375.237l-13.2-11.6h-9.3l6 14.9s13.8 13.2 16.5 15.7v-19z"/><g transform="translate(287.274 581.962)"><path fill="#F9C385" d="M381.4-214v36.8H228.5V-214l.9-.6 64.2-43.1h22.7l64.2 43.1.9.6z"/><linearGradient id="a" gradientUnits="userSpaceOnUse" x1="700.886" y1="392.421" x2="701.886" y2="392.421" gradientTransform="matrix(152.867 0 0 -80.481 -106913.852 31364.904)"><stop offset=".012" stop-color="#e4c49e"/><stop offset=".337" stop-color="#e9cda9"/><stop offset=".906" stop-color="#f6e6c6"/><stop offset="1" stop-color="#f8ebcc"/></linearGradient><path opacity=".34" fill="url(#a)" d="M381.4-214.1l-.9-.7h-8.6l-56.1-43h-2l56.1 43h-10.3l-46.5-43h-1.9l46.6 43h-13.5l-34.1-43h-1.5l34 43h-16.3l-18.5-43h-1.4l18.5 43h-19.4v-43h-1.3v43h-19.4l18.4-43H302l-18.5 43h-16.3l34-43h-1.5l-34.1 43h-13.5l46.6-43h-1.9l-46.5 43H240l56.1-43h-2l-56.1 43h-8.6l-.9.7v.6h9.1v36.2h1.2v-36.2h11.1v36.2h1.3v-36.2h14.1v36.2h1.2v-36.2h16.8v36.2h1.2v-36.2h19.8v36.2h1.3v-36.2h19.7v36.2h1.3v-36.2h16.8v36.2h1.2v-36.2h14.1v36.2h1.3v-36.2h11.1v36.2h1.2v-36.2h9.1v-.6z"/><path fill="#EDE2DC" d="M387.1-208.9v31.7h-21.7v-31.7c0-6 4.9-10.9 10.9-10.9 3 0 5.7 1.2 7.7 3.2 1.9 2 3.1 4.7 3.1 7.7z"/><path fill="#9E7C6A" d="M228.5-185.5h136.9v8.3H228.5v-8.3z"/><path fill="#623A2F" d="M386-208.8v31.7h-19.5v-31.7c0-1.5.3-2.8.9-4.1 1.5-3.3 4.9-5.6 8.8-5.6 2.7 0 5.1 1.1 6.9 2.8 1.8 1.7 2.9 4.2 2.9 6.9z"/><path fill="#90695E" d="M383.8-207.1v29.9h-17.3v-31.5c0-1.5.3-2.8.9-4.1 1.7-2.1 4.3-3.5 7.2-3.5 2.6 0 4.8 1 6.5 2.7s2.7 4 2.7 6.5z"/><path fill="#623A2F" d="M369.4-208.3h10.3v6.1h-10.3v-6.1zm0 7.6h10.3v21.1h-10.3v-21.1z"/><path fill="#BB8B6A" d="M308.8-208.3h13.3v4.4h-13.3v-4.4zm-39.8 0h11.8v4.4H269v-4.4z"/><path fill="#90695E" d="M296.8-260.2v-22.9h-.6v-8.2h.6v-8.7h1.3v8.7h.5v8.2h-.5v22.9h.8v-13h1v13h3.3v-.4c-1.5-.7-2.5-2.2-2.5-4 0-2.4 2-4.4 4.4-4.4s4.4 2 4.4 4.4c0 1.8-1 3.3-2.5 4v.4h2.8v-1.5h2.8v-11.5h1v13h1.4v2.6h-20v-2.6h1.8z"/><path opacity=".3" fill="#D89E64" d="M228.4-213.4l65.1-43.5h9.5l-10.3 42.2 4.6 18.9 15.8 4.1 22.5-22.6c1.6-2.9 4.5-5 8.1-5.4.5-.1.9-.1 1.4-.1l31.1-.5c-3.8 0-7.1 3.4-9.1 4.4h.2c-.8 3.2-2 2.9-2.4 4.3-.1.7-.8 1.9-.8 2.6v33.1H322l-93.8-.4.2-37.1z"/><path fill="#FED99C" d="M372.7-219.8H349l-38-37.9h5.3l56.4 37.9z"/></g><g transform="translate(191.499 588.276)"><path fill="#F9C385" d="M413.8-194.8v44.7H228.2v-44.7l1.1-.7 77.9-52.3h27.6l77.9 52.3 1.1.7z"/><linearGradient id="b" gradientUnits="userSpaceOnUse" x1="989.761" y1="384.894" x2="990.761" y2="384.894" gradientTransform="matrix(185.582 0 0 -97.707 -183453.594 37407.703)"><stop offset=".012" stop-color="#e4c49e"/><stop offset=".337" stop-color="#e9cda9"/><stop offset=".906" stop-color="#f6e6c6"/><stop offset="1" stop-color="#f8ebcc"/></linearGradient><path opacity=".34" fill="url(#b)" d="M413.8-195l-1.1-.7h-10.4L334.2-248h-2.5l68.1 52.3h-12.5L330.9-248h-2.3l56.5 52.3h-16.3L327.4-248h-1.9l41.4 52.3H347L324.6-248h-1.7l22.5 52.3h-23.6V-248h-1.5v52.3h-23.7l22.5-52.3h-1.7L295-195.7h-19.8l41.3-52.3h-1.9l-41.4 52.3h-16.3l56.5-52.3h-2.3l-56.4 52.3h-12.5l68.1-52.3h-2.4l-68.2 52.3h-10.4l-1.1.7v.8h11v43.9h1.5v-43.9h13.5v43.9h1.5v-43.9h17.2v43.9h1.5v-43.9h20.3v43.9h1.5v-43.9h24.1v43.9h1.5v-43.9h24v43.9h1.5v-43.9h20.4v43.9h1.5v-43.9h17.1v43.9h1.5v-43.9h13.5v43.9h1.5v-43.9h11v-.8z"/><path fill="#EDE2DC" d="M420.8-188.6v38.5h-26.4v-38.5c0-7.3 5.9-13.2 13.2-13.2 3.7 0 6.9 1.5 9.3 3.9 2.4 2.3 3.9 5.6 3.9 9.3z"/><path fill="#9E7C6A" d="M228.2-160.2h166.2v10.1H228.2v-10.1z"/><path fill="#623A2F" d="M419.4-188.5v38.4h-23.6v-38.4c0-1.8.4-3.5 1.1-5 1.9-4 6-6.8 10.7-6.8 3.3 0 6.2 1.3 8.3 3.4 2.2 2.2 3.5 5.1 3.5 8.4z"/><path fill="#90695E" d="M416.8-186.4v36.3h-21v-38.3c0-1.8.4-3.5 1.1-5 2-2.6 5.2-4.2 8.7-4.2 3.1 0 5.9 1.2 7.9 3.3 2 2 3.3 4.8 3.3 7.9z"/><path fill="#623A2F" d="M399.3-187.9h12.5v7.4h-12.5v-7.4zm0 9.3h12.5v25.6h-12.5v-25.6z"/><path fill="#BB8B6A" d="M325.7-187.9h16.1v5.4h-16.1v-5.4zm-48.4 0h14.3v5.4h-14.3v-5.4z"/><path fill="#90695E" d="M311.1-250.9v-27.8h-.7v-9.9h.7v-10.6h1.6v10.5h.6v9.9h-.6v27.8h.9v-15.6h1.2v15.7h4v-.5c-1.8-.8-3.1-2.7-3.1-4.8 0-2.9 2.4-5.3 5.3-5.3s5.3 2.4 5.3 5.3c0 2.1-1.3 4-3.1 4.8v.5h3.4v-1.8h3.5v-13.9h1.2v15.7h1.7v3.1h-24.4v-3.1h2.5z"/><path opacity=".3" fill="#D89E64" d="M228.1-194.6l79-53.3h11.6l-12.5 51.7 5.6 23.2 19.2 5.1 27.4-27.3c2-3.5 5.5-6 9.8-6.6.6-.1 1.1-.1 1.7-.1l37.7.1c-4.6 0-8.7 2.1-11 6.1-.7 1.3-1.6 2.8-2 4.5-.2.8-.4 1.6-.4 2.5v38.7H342l-113.9.1v-44.7z"/><path fill="#FED99C" d="M403.3-201.8h-28.8l-46.1-46h6.4l68.5 46z"/></g><path fill="#DD6310" d="M1525.357 454.09c-41.3-25.2-59.2-1-59.2-1s-15.8 29.5-73.7 11.6-41 0-94.7 8.4c-52.9 8.3-111.6-15.8-79.6-32.4 1-.5-.5-2.1-.5-3.2-.7-23.7 72.7-22 64.4-46.5-4.1-20.2 1.1 3.2 1.1 3.2l-6.3-5.3c14.5 1.9-3-2.7 14.9-.9 105.1 10.9 177.3-5.7 288.2-11.6l9.4-.2c31.6 36.2-17.9 98.9-64 77.9z"/><path fill="#F27210" d="M1525.357 449.79c-41.3-25.2-59.2-1-59.2-1s-15.8 29.5-73.7 11.6-41 0-94.7 8.4c-52.9 8.3-111.5-15.8-79.6-32.4 1-.5-.5-2.1-.5-3.2-.7-23.7 72.7-22 64.4-46.5-4.1-20.2 1.1 3.2 1.1 3.2l-6.3-5.3c14.5 1.9-3-2.7 14.9-.9 105.1 10.9 177.3-5.7 288.3-11.6l9.4-.2c31.5 36.3-18 99-64.1 77.9z"/><path fill="#DB5012" d="M401.1 458.2h54.7v-21.7l-15.1-13.2h-16l-8.5 6.6s-4.7 1.9-11.3 1.9-14.1 4.7-14.1 4.7v3.8l-4.7 8.5 4.7 9.4h10.3z"/><path fill="#EF5B0E" d="M455.8 436.5l-15.1-13.2H430l6.9 17s15.7 15.1 18.8 17.9l.1-21.7z"/><path fill="#DB5012" d="M575.918 443.1s.3-7.3 3.1-7.3 5.3-3.4 5.3-3.4 7.6 1.1 7.6 2.5 3.9 3.9 3.9 5.1v4.2h-20v-1.1h.1z"/><path fill="#EF5B0E" d="M595.918 444v-4c0-1.1-3.9-3.7-3.9-5.1 0-1.1-4.3-2-6.5-2.3l1.7 5.7s3.5 4.5 4.8 5.9h2.9c.3 0 .6-.1 1-.2z"/><path fill="#DB5012" d="M671.3 416.2h-32.6v-12.9l9-7.9h9.6l5.1 3.9s2.8 1.1 6.7 1.1 8.4 2.8 8.4 2.8v2.2l2.8 5.1-2.8 5.6-6.2.1z"/><path fill="#EF5B0E" d="M677.5 416.2l2.8-5.6-2.8-5.1v-2.2s-4.5-2.8-8.4-2.8-6.7-1.1-6.7-1.1l-3.5-2.7.1 1.6 12.4 18 6.1-.1z"/><path fill="#FED99C" d="M1424.176 431.437v1h-164.8v-1c.1-9.4 1.7-18.6 5-27.5l.5-1.3.2-.6c3.6-9.2 8.8-17.5 15.4-24.9h-.1l1.6-1.7.3-.3c6.5-6.8 13.9-12.3 22.2-16.5h-.3l4.2-1.9c9.9-4.4 20.5-6.8 31.5-7h3.5c5.5.1 10.9.8 16.1 1.9 5.3 1.2 10.4 2.9 15.4 5.1l4.2 1.9h-.3c8.3 4.2 15.7 9.7 22.2 16.5l.3.3 1.6 1.7h-.1c6.6 7.3 11.8 15.7 15.4 24.9l.2.6.5 1.3c3.6 8.8 5.3 18 5.3 27.5z"/><g transform="translate(1031.376 659.837)"><path opacity=".3" fill="#D89E64" d="M346.6-264.9c-7.4 4.9-13.2 7.9-21.5 7.9-18.9 0-34.1-15.3-34.1-34.1 0-6.7 2-13.1 5.3-18.4-6.6 1.1-12.9 3.4-19 5.5v.1L273-302h.3c-8.3 5.3-15.7 9.5-22.2 16.8l-.3.4-1.6 1.7h.1c-6.6 7.4-11.8 15.8-15.4 25.3l-.2.7-.5 1.4c-3.2 8.4-4.9 18-5 27.4v1h118.4v-37.6z"/><linearGradient id="c" gradientUnits="userSpaceOnUse" x1="-1530.782" y1="314.5" x2="-1529.783" y2="314.5" gradientTransform="matrix(164.8086 0 0 -82.6501 252514.188 25724.63)"><stop offset=".012" stop-color="#e4c49e"/><stop offset=".337" stop-color="#e9cda9"/><stop offset=".906" stop-color="#f6e6c6"/><stop offset="1" stop-color="#f8ebcc"/></linearGradient><path opacity=".34" fill="url(#c)" d="M392.4-236.3c-.7-6.7-2.2-13.2-4.5-19.6l-.5-1.3-.2-.6c-3.6-9.2-8.8-17.5-15.4-24.9h.1l-1.6-1.7-.3-.3c-6.6-6.8-14-12.3-22.3-16.5h.3l-4.2-1.8c-5-2.2-10.1-3.9-15.4-5.1-5.3-1.2-10.7-1.8-16.1-1.9h-3.5c-11 .3-21.6 2.6-31.5 7l-4.2 1.9h.3c-8.5 4.1-15.9 9.6-22.4 16.4l-.3.3-1.6 1.7h.1c-3.6 4-6.7 8.2-9.4 12.7-2.3 3.9-4.3 7.9-6 12.1l-.2.6-.5 1.3c-1.7 4.6-2.9 9.3-3.8 14.1-.3 1.8-.6 3.6-.7 5.4-.3 2.6-.4 5.2-.5 7.9v1h164.8v-1c-.1-2.5-.2-5.1-.5-7.7zm-7.4-21.5h-10.9c-.2-.6-.4-1.3-.7-2-.2-.4-.3-.8-.4-1.3-.4-1.1-.8-2.2-1.2-3.2 0-.1-.1-.2-.1-.3-.5-1.1-1-2.3-1.5-3.4-.2-.4-.4-.7-.5-1.1-.4-.7-.7-1.5-1.1-2.2-.2-.4-.5-.9-.7-1.3-.4-.7-.7-1.3-1.1-1.9-.3-.4-.5-.9-.8-1.3-.4-.6-.7-1.2-1.1-1.8-.3-.5-.6-.9-.9-1.3-.4-.6-.7-1.1-1.1-1.7-.3-.4-.6-.9-.9-1.3-.2-.3-.4-.5-.6-.8h7.7c6.8 7.3 12.2 15.6 15.9 24.9zm-91.1 21.5c.1-3.4.2-6.7.4-10 .1-3.2.4-6.4.6-9.6h31c.5 6.4.8 12.9 1 19.6h-33zm-23-25.3c.2-.9.4-1.8.6-2.6.5-1.7 1-3.3 1.5-4.9l.3-.9.3-.9c.8-2.1 1.6-4.2 2.4-6.2.2-.5.5-1 .7-1.5.6-1.4 1.3-2.8 2-4.1h17.8c0 .2 0 .3-.1.5-.3 1.6-.6 3.3-.9 5 0 .2-.1.5-.1.7-.3 1.8-.6 3.6-.8 5.5v.3l-.6 4.8c0 .4-.1.7-.1 1.1v.4c-.2 2-.4 4-.6 6.1v.5H270c.3-1.3.6-2.5.9-3.8zm-1.2-3.1c0 .1 0 .1-.1.2-.6 2-1 4.1-1.5 6.2l-.1.5h-19.1c.1-.4.3-.9.5-1.3.2-.5.4-1 .5-1.5.3-.7.5-1.3.8-2l.6-1.5c.3-.7.6-1.3.9-2 .2-.5.4-.9.6-1.4.3-.7.7-1.4 1-2.1.1-.1.1-.3.2-.4.1-.3.3-.5.4-.8.4-.8.9-1.6 1.3-2.3.2-.3.3-.6.5-.8.6-1 1.2-2.1 1.9-3.1l.1-.1c.6-1 1.3-1.9 1.9-2.9.2-.3.5-.6.7-.9.4-.6.9-1.2 1.3-1.8h14.4c-.1.2-.1.3-.2.4-.8 1.6-1.6 3.3-2.3 5-.1.3-.2.5-.3.8-.7 1.8-1.4 3.6-2 5.4-.1.2-.1.4-.2.5-.1.2-.1.4-.2.6-.6 1.7-1.1 3.5-1.6 5.3zm54.3-20c-.1-.5-.2-.9-.3-1.4-.1-.3-.1-.6-.2-.9-.4-1.7-.8-3.4-1.2-5-.1-.3-.1-.5-.2-.7-.1-.5-.3-1-.4-1.5l-.3-.9c-.1-.4-.3-.9-.4-1.3-.1-.3-.2-.6-.3-.8-.1-.4-.3-.8-.4-1.2-.1-.3-.2-.5-.3-.8-.2-.4-.3-.8-.5-1.2-.1-.2-.2-.4-.3-.7 0-.1-.1-.1-.1-.2h9c.4.4.8.7 1.3 1.1.2.2.3.3.5.4.6.6 1.2 1.2 1.9 1.8.1.1.2.2.3.4.5.5 1 1 1.5 1.6.2.2.4.5.6.7.3.4.7.9 1.1 1.3.2.3.4.6.7.9.3.4.7.9 1 1.3.3.3.5.7.7 1 .3.5.6.9.9 1.4.2.4.4.7.7 1.1.3.5.6 1 .9 1.4.2.4.5.8.7 1.2.1.2.3.5.4.7H324v.3zm.3 13.8c0 .2 0 .4.1.6.3 2 .5 4 .7 6.1.1.8.2 1.6.2 2.4.1 1.3.3 2.7.4 4H295v-.5c.2-1.9.4-3.7.6-5.5 0-.2 0-.4.1-.7 0-.2 0-.4.1-.5.2-2 .5-4.1.7-6v-.1c.3-1.9.6-3.8.8-5.6 0-.2.1-.4.1-.5.3-1.8.6-3.4.9-5.1 0-.1.1-.3.1-.4h23.9c.2 1.2.5 2.4.7 3.6.1.7.2 1.3.4 1.9.3 2 .6 4.1.9 6.3zm-4.7-23c.1.2.1.4.2.6.2.6.3 1.1.5 1.7.1.3.2.6.2.9.1.5.3 1 .4 1.5.1.3.2.7.2 1 .1.5.2 1 .4 1.6.1.3.1.7.2 1 .1.3.1.6.2 1h-23.1c.1-.3.1-.6.2-.9.1-.4.2-.8.2-1.1.1-.5.3-1 .4-1.5.1-.4.2-.7.3-1 .1-.5.3-1.1.4-1.6.1-.3.1-.6.2-.8.2-.7.4-1.3.5-1.9 0-.1.1-.3.1-.4.2-.7.5-1.4.7-2.1.1-.2.1-.3.2-.5.2-.5.4-1 .5-1.5.1-.2.2-.4.3-.7.2-.4.3-.8.5-1.2l.3-.6c.1-.2.2-.5.3-.7h12.9c.1.2.2.5.3.7.1.2.2.5.3.7.1.4.3.7.4 1.1.1.2.2.4.3.7.2.4.3.9.5 1.4.1.2.1.4.2.6.4.6.6 1.3.8 2zm-17.9-7.1l-.3.6c-.2.4-.3.7-.5 1.2-.1.2-.2.5-.3.7-.2.4-.3.8-.4 1.2-.1.3-.2.6-.3.8-.1.4-.3.9-.4 1.3l-.3.9c-.1.5-.3 1-.4 1.5-.1.3-.1.5-.2.8-.2.7-.4 1.5-.6 2.3v.1c-.2.8-.4 1.7-.6 2.6-.1.3-.1.6-.2.8l-.3 1.5h-17.1c.1-.3.3-.5.4-.8.2-.4.4-.8.7-1.1l.9-1.5c.2-.3.5-.7.7-1.1.3-.5.6-.9.9-1.4.2-.3.5-.7.7-1 .3-.5.7-.9 1-1.3.2-.3.5-.6.7-.9.4-.5.7-.9 1.1-1.4.2-.3.4-.5.6-.7.5-.6 1-1.1 1.5-1.6.1-.1.2-.2.3-.4.6-.6 1.2-1.2 1.9-1.8.2-.2.3-.3.5-.4.4-.4.8-.7 1.2-1.1h9l-.2.2zm25.6 38.4c-.1-.6-.1-1.2-.2-1.8-.2-2.3-.5-4.5-.8-6.7-.1-.5-.2-1-.2-1.6-.2-1.6-.5-3.2-.7-4.8-.1-.7-.3-1.5-.4-2.2-.2-1.1-.4-2.1-.5-3.2h17.8c.7 1.4 1.3 2.8 2 4.2.2.5.5.9.7 1.4.9 2 1.7 4.1 2.4 6.3.2.6.4 1.2.6 1.7.5 1.6 1 3.2 1.5 4.9.2.8.4 1.7.6 2.6.3 1.2.6 2.5.9 3.8h-23.1c-.3-1.5-.5-3-.6-4.6zm21.9-8.6c-.2-.7-.5-1.3-.7-1.9-.5-1.5-1.1-3-1.7-4.4-.3-.8-.7-1.5-1-2.3-.4-1-.8-2-1.3-2.9h14.4c.5.6.9 1.2 1.3 1.8.2.3.4.6.7.9.6.9 1.2 1.8 1.9 2.7.1.1.1.2.2.2.7 1 1.3 2 1.9 3.1.2.3.4.6.5 1 .4.7.8 1.5 1.2 2.2.2.4.4.9.7 1.3.3.7.7 1.3 1 2l.6 1.5c.3.6.6 1.3.8 1.9l.6 1.5c.3.6.5 1.3.8 1.9.2.5.4 1.1.6 1.6.1.4.3.8.4 1.3H353c-.4-1.9-.9-3.7-1.4-5.6-.1-.4-.2-.7-.3-1.1-.7-2.3-1.4-4.5-2.1-6.7zm-6.1-30c9 4 17.1 9.5 24.1 16.5h-7.3c-.7-.9-1.4-1.7-2.1-2.5l-.4-.4c-.6-.7-1.3-1.4-2-2.1l-.9-.9c-.5-.5-1-1.1-1.6-1.6-.3-.3-.7-.6-1-.9-.5-.5-1-1-1.6-1.4-.3-.3-.7-.6-1-.8-.6-.5-1.1-.9-1.7-1.4-.3-.3-.6-.5-.9-.8-.7-.5-1.3-1-2-1.5-.2-.2-.4-.3-.7-.5-.9-.6-1.8-1.2-2.7-1.7h1.8zm-2.7 1.7c.9.5 1.7 1.1 2.6 1.7l.9.6c.6.4 1.2.9 1.8 1.3.3.3.7.5 1 .8.6.4 1.1.8 1.6 1.3.4.3.7.6 1 .9.5.5 1 .9 1.5 1.4l1 1c.5.5 1 .9 1.4 1.4.3.3.7.7 1 1.1.5.5.9 1 1.4 1.5.3.4.7.7 1 1.1.2.2.4.5.6.7h-13.9c-.4-.7-.8-1.4-1.1-2.1-.1-.1-.1-.2-.2-.4-.5-.9-1-1.7-1.6-2.6-.2-.3-.3-.5-.5-.7-.4-.6-.8-1.2-1.2-1.7l-.6-.9c-.4-.5-.7-1-1.1-1.4-.2-.3-.4-.6-.7-.9-.4-.5-.7-.9-1.1-1.3-.2-.3-.5-.5-.7-.8-.4-.5-.8-.9-1.2-1.3l-.6-.6c-.6-.6-1.2-1.2-1.8-1.7l-.1-.1h6.3c.9.5 1.8 1 2.8 1.6.3 0 .4.1.5.1zm-2.1-3.7h-.4c-.3-.1-.6-.3-.8-.4.4.2.8.3 1.2.4zm-14-3.2c1.4.4 2.8.8 4.2 1.3.3.1.5.2.7.3 1.2.4 2.5.9 3.7 1.5.2.1.3.2.5.2h-4.6c-.2-.1-.4-.3-.6-.4-.5-.4-1.1-.8-1.6-1.2-.3-.2-.6-.4-.8-.6l-1.5-.9c-.1-.1-.3-.2-.4-.2h.4zm-8.9-1.2c.8.2 1.6.4 2.3.6h.1l2.4.9c.2.1.5.2.7.3.6.3 1.1.5 1.7.8.3.1.5.3.8.4.6.3 1.1.7 1.7 1.1.1.1.3.2.4.3h-7.3c-.2-.3-.3-.6-.5-.9-.1-.1-.1-.2-.2-.3-.3-.5-.6-1-.9-1.4-.1-.1-.1-.2-.2-.3-.2-.3-.4-.6-.7-.9-.1-.1-.2-.2-.3-.4l-.3-.3c.1.1.2.1.3.1zm-9 2.2c.1-.2.3-.4.4-.5l.3-.3.6-.6c2-1.8 4.1-1.6 6.1.6.1.1.1.2.2.3.2.2.3.4.5.5.1.2.3.4.4.6.1.1.2.3.3.4.2.3.4.7.6 1 0 .1.1.1.1.2h-11c0-.1.1-.1.1-.2.2-.4.4-.7.6-1 .1-.1.2-.3.3-.4.2-.2.4-.4.5-.6zm-8.1.5c.5-.3 1.1-.5 1.6-.8.3-.1.5-.2.8-.4.8-.3 1.6-.6 2.3-.9h.1c.8-.2 1.5-.4 2.3-.6h.2l-.3.3-.3.3c-.2.3-.5.6-.7.9-.1.1-.2.2-.2.3-.3.4-.6.9-.9 1.4-.1.1-.1.2-.2.3-.2.3-.3.6-.5.9h-7.3c.2-.1.3-.2.5-.3.6-.4 1.1-.7 1.7-1 .4-.1.7-.3.9-.4zm-10.3 1.5c1.2-.5 2.5-1 3.7-1.5.2-.1.5-.2.7-.3 1.4-.5 2.8-.9 4.2-1.2.1 0 .2-.1.3-.1-.1.1-.3.2-.4.2l-1.5.9-.9.6c-.6.4-1.1.8-1.6 1.2-.2.1-.4.3-.6.4h-4.6c.4 0 .5-.1.7-.2zm-4.2-.2c-.3.2-.6.3-.9.4h-.4c.5-.1.9-.2 1.3-.4zm-3.1 4c.9-.6 1.8-1.1 2.8-1.6h6.3c-.6.6-1.3 1.2-1.9 1.8l-.6.6c-.4.5-.9.9-1.3 1.4-.2.3-.4.5-.6.8-.4.4-.8.9-1.1 1.4-.2.3-.4.5-.6.8-.4.5-.7 1-1.1 1.5-.2.3-.4.5-.6.8l-1.2 1.8c-.2.2-.3.5-.5.7-.5.8-1 1.7-1.6 2.6-.1.1-.1.2-.2.3l-1.2 2.1h-13.8c.2-.2.4-.5.5-.7.3-.4.7-.8 1-1.2.4-.5.9-1 1.3-1.5.4-.4.7-.7 1-1.1l1.4-1.4c.4-.4.7-.7 1.1-1 .5-.5.9-.9 1.4-1.3.4-.3.7-.7 1.1-1l1.5-1.2c.4-.3.7-.6 1.1-.9.6-.4 1.1-.8 1.7-1.2.3-.2.7-.5 1-.7l2.4-1.5c.5-.1.6-.2.7-.3zm-3-1.6h1.8c-.9.6-1.8 1.1-2.7 1.7-.2.2-.5.3-.7.5-.7.5-1.4.9-2 1.5-.3.2-.6.5-.9.8-.6.4-1.1.9-1.7 1.3-.4.3-.7.6-1 .9-.5.5-1.1.9-1.6 1.4-.3.3-.6.6-1 .9-.5.5-1.1 1-1.6 1.6-.3.3-.6.6-.8.9-.6.7-1.3 1.4-2 2.1-.1.2-.3.3-.4.4-.7.8-1.4 1.7-2.1 2.5h-7.3c7-6.9 15.1-12.5 24-16.5zM242-270c2.8-4.5 6-8.8 9.8-12.7h7.7c-.2.3-.4.5-.6.8-.3.4-.6.9-.9 1.3-.4.6-.8 1.1-1.2 1.7-.3.4-.6.8-.8 1.3-.4.6-.8 1.2-1.1 1.8-.3.4-.5.8-.8 1.3-.4.7-.7 1.3-1.1 2-.2.4-.5.8-.7 1.2-.2.4-.4.9-.6 1.3-.2.3-.3.7-.5 1-.2.4-.4.7-.5 1.1-.5 1.1-1 2.2-1.5 3.4 0 .1-.1.2-.1.3-.5 1.1-.9 2.1-1.3 3.2-.2.4-.3.9-.5 1.3-.2.6-.5 1.3-.7 1.9h-10.9c1.9-4.3 3.9-8.3 6.3-12.2zm-11.5 33.7c.2-1.8.5-3.6.8-5.4.8-4.8 2.1-9.5 3.8-14.1h11.1c-1.4 4.6-2.4 9.3-3.1 14.1-.3 1.8-.5 3.6-.6 5.4h-12zm13.9 0c.2-1.8.4-3.6.7-5.4.7-4.8 1.7-9.5 3.2-14.1h19.4c-.9 4.6-1.6 9.3-2.1 14.1-.2 1.8-.3 3.6-.4 5.4h-20.8zm22.6 0c.1-1.8.3-3.6.4-5.4.5-4.8 1.1-9.5 2.1-14.1h23.4c-.3 3.7-.5 7.6-.7 11.4-.1 2.7-.2 5.4-.3 8.2l-24.9-.1zm60.9-19.6h23.4c1.3 6.3 2.1 12.8 2.5 19.6h-24.9c-.2-6.6-.5-13.2-1-19.6zm25.4 0h19.4c1.9 6.3 3.2 12.9 3.8 19.6h-20.7c-.4-6.8-1.3-13.3-2.5-19.6zm21.4 0h11.1c2.4 6.3 3.9 12.9 4.6 19.6h-12c-.5-6.7-1.8-13.3-3.7-19.6z"/><path opacity=".5" fill="#D89E64" d="M346.6-264.9l19.3-23.5s25.2 17.7 26.9 60.9h-46.3l.1-37.4z"/></g><path fill="#DB5012" d="M1262.5 449.8h54.7v-21.6l-15.1-13.2h-16l-8.5 6.6s-4.7 1.9-11.3 1.9-14.1 4.7-14.1 4.7v3.8l-4.7 8.5 4.7 9.4h10.3v-.1z"/><path fill="#EF5B0E" d="M1317.2 428.2l-15.1-13.2h-10.7l6.9 17s15.7 15.1 18.8 17.9l.1-21.7z"/><g transform="translate(1287.128 675.623)"><path fill="#FED99C" d="M239.2-281.2l-1.3-1.2-2.7-2.4-.6-.6-3.5-3.1-.7-.6-2.4-2.1v-11.3l.3-.2.6-.4 10.1-7.3.2-.2H255l.2.2 10.6 7.7.3.2v11.4l-6.5 5.8-.6.6-2.7 2.4-1.3 1.2v-1.5 1.5l-15.8-.1zm26.1-10.5V-302l-13.8 4.1v-.6l13.3-4-10-7.3-4.2 7.3-.3-.3s-.1 0-.1-.1l4-7H240l4 7s-.1 0-.1.1l-.4.3-4.2-7.3-10 7.3 13.3 4v.6l-13.7-4.1v10.3l1.5-.5.7-.2 11.8-3.5c.1.2.1.3.2.5l-12 3.6-.7.2-1.1.3 1.1.8.7.5 3.5 2.5 3.3 2.4 1.5 1.1 5.1-9 .4-.8s.1 0 .1.1c.1.1.3.1.4.1l-.5.8-5 8.8h14.3l-5.1-8.8-.5-.8c.1 0 .2 0 .2-.1.1 0 .1-.1.2-.1 0 0 .1 0 .1-.1l.4.8 5.2 8.9 1.4-1 3.3-2.4 5.2-3.7-13.7-4.1c.1-.2.2-.3.2-.5l14.2 4.2z"/><path fill="#FED99C" d="M260.8-283.1v6.4h-1.2v.6h-25v-.6h-1.2v-6.4h1.2v-1l3.3 3.4v1.7h18.4v-1.7l3.3-3.4v1h1.2z"/><path fill="#BB8B6A" d="M250.6-297.9v1.2c0 .2 0 .4-.1.6v.1c-.1.1-.1.3-.2.4-.3.5-.8.8-1.5 1.1-.2.1-.4.1-.6.2-.1 0-.2 0-.3.1-.3.1-.6.1-.9.1-.4 0-.8 0-1.1-.1-.2 0-.4-.1-.6-.2-.6-.2-1.2-.6-1.5-1.1-.1-.2-.2-.3-.3-.5s-.1-.4-.1-.6v-3.9c0-.4.2-.8.5-1.2l.2-.2c.1-.1.2-.1.2-.2.6-.5 1.6-.8 2.6-.8.8 0 1.5.2 2.1.4.2.1.4.2.5.3.2.1.3.3.4.4.3.3.5.7.5 1.2v2.7h.2zm-.8-2.7c0-1-1.2-1.7-2.8-1.7-1.5 0-2.8.8-2.8 1.7s1.2 1.7 2.8 1.7 2.8-.8 2.8-1.7z"/><path opacity=".75" fill="#FFDCC0" d="M251.4-295.9l13.9 4.2V-302l-13.8 4.1v-.6l13.3-4-10-7.3-4.2 7.3-.3-.3s-.1 0-.1-.1l4-7H240l4 7s-.1 0-.1.1l-.4.3-4.2-7.3-10 7.3 13.3 4v.6l-13.7-4.1v10.3l1.5-.5.7-.2 11.8-3.5c.1.2.1.3.2.5l-12 3.6-.7.2-1.1.3 1.1.8.7.5 3.5 2.5 3.3 2.4 1.5 1.1 5.1-9 .4-.8s.1 0 .1.1c.1.1.3.1.4.1l-.5.8-5 8.8h14.3l-5.1-8.8-.5-.8c.1 0 .2 0 .2-.1.1 0 .1-.1.2-.1 0 0 .1 0 .1-.1l.4.8 5.2 8.9 1.4-1 3.3-2.4 5.2-3.7-13.7-4.1c.3-.1.4-.3.5-.5-.1 0 0 0 0 0zm-1.1.3c-.3.5-.8.8-1.5 1.1-.2.1-.4.1-.6.2-.1 0-.2 0-.3.1-.3.1-.6.1-.9.1-.4 0-.8 0-1.1-.1-.2 0-.4-.1-.6-.2-.6-.2-1.2-.6-1.5-1.1-.1-.2-.2-.3-.3-.5s-.1-.4-.1-.6v-3.9c0-.4.2-.8.5-1.2l.2-.2c.1-.1.2-.1.2-.2.6-.5 1.6-.8 2.6-.8.8 0 1.5.2 2.1.4.2.1.4.2.5.3.2.1.3.3.4.4.3.3.5.7.5 1.2v3.8c0 .2 0 .4-.1.6v.1c.1.3.1.4 0 .5z"/><ellipse fill="#90695E" cx="247.1" cy="-300.7" rx="2.8" ry="1.8"/></g><g transform="translate(1203.983 661.942)"><path fill="#FED99C" d="M251.6-247.9l-2.8-2.5-5.6-5-1.4-1.2-7.4-6.6-1.4-1.2-5-4.5v-24.4l.6-.5 1.2-.9 21.4-15.5.5-.4h33.6l.5.4 22.6 16.4.6.5v24.3l-13.9 12.3-1.4 1.2-5.7 5-2.8 2.5v-3.1 3.1l-33.6.1zm55.5-22.2v-22l-29.4 8.8v-1.3l28.5-8.4-21.4-15.5-8.9 15.6-.1-.1-.7-.6c-.1 0-.1-.1-.2-.1l8.6-14.9h-30.1l8.6 14.9c-.1 0-.1.1-.2.1l-.8.6v.2l-9-15.7-21.3 15.5 28.4 8.5v1.3l-29.4-8.8v21.9l3.3-1 1.4-.4 25-7.5v.1c.1.4.3.7.5 1.1l-25.5 7.6-1.4.4-2.3.7 2.3 1.6 1.4 1 7.4 5.4 7 5.1 3.3 2.4 11-19.1.9-1.6c.1 0 .2.1.3.1l.9.3-1 1.7-10.7 18.8h30.4l-11-18.8-1-1.7c.2-.1.3-.1.5-.2.1-.1.3-.1.4-.2.1 0 .2-.1.3-.1l.9 1.6 11.1 19 3.1-2.2 7-5.1 11-8-29.2-8.8c.2-.4.4-.7.5-1.1v-.1l29.6 9z"/><path fill="#FED99C" d="M297.6-251.8v13.5h-2.5v1.3h-53.3v-1.3h-2.5v-17l9.5 8.6v3.5h39.3v-3.5l7-7.2v2.1h2.5z"/><path fill="#BB8B6A" d="M275.9-283.3v2.5c0 .4-.1.8-.2 1.2 0 .1-.1.2-.1.3-.1.3-.3.6-.5.8-.7 1-1.8 1.8-3.1 2.3-.4.2-.8.3-1.2.4-.2.1-.4.1-.6.1-.6.1-1.2.2-1.8.2-.8 0-1.6-.1-2.4-.3-.4-.1-.8-.2-1.2-.4-1.4-.5-2.5-1.4-3.2-2.4-.2-.4-.4-.7-.5-1.1-.1-.4-.2-.8-.2-1.2v-8c0-.9.4-1.7 1-2.5.1-.2.3-.3.4-.4.2-.1.3-.3.5-.4 1.4-1 3.4-1.6 5.6-1.6 1.7 0 3.2.4 4.4 1 .4.2.8.4 1.1.7.4.2.7.5.9.8.6.7 1 1.6 1 2.5l.1 5.5zm-1.6-5.8c0-2-2.6-3.7-5.9-3.7s-5.9 1.6-5.9 3.7 2.6 3.7 5.9 3.7c3.3-.1 5.9-1.7 5.9-3.7z"/><path opacity=".8" fill="#FFDCC0" d="M277.5-279l29.7 8.9v-22l-29.4 8.8v-1.3l28.4-8.4-21.4-15.5-8.9 15.6-.1-.1-.7-.6c-.1 0-.1-.1-.2-.1l8.6-14.9h-30.1l8.6 14.9c-.1 0-.1.1-.2.1l-.8.6v.2l-9-15.7-21.3 15.5 28.4 8.5v1.3l-29.4-8.8v21.9l3.3-1 1.4-.4 25-7.5v.1c.1.4.3.7.5 1.1l-25.5 7.6-1.4.4-2.3.7 2.3 1.6 1.4 1 7.4 5.4 7 5.1 3.3 2.4 11-19.1.9-1.6c.1 0 .2.1.3.1l.9.3-1 1.7-10.7 18.8h30.4L273-272.2l-1-1.7c.2-.1.3-.1.5-.2.1-.1.3-.1.4-.2.1 0 .2-.1.3-.1l.9 1.6 11.1 19 3.1-2.2 7-5.1 11-8-29.3-8.8c.2-.4.4-.7.5-1.1zm-2.3.6c-.7 1-1.8 1.8-3.1 2.3-.4.2-.8.3-1.2.4-.2.1-.4.1-.6.1-.6.1-1.2.2-1.8.2-.8 0-1.6-.1-2.4-.3-.4-.1-.8-.2-1.2-.4-1.4-.5-2.5-1.4-3.2-2.4-.2-.4-.4-.7-.5-1.1s-.2-.8-.2-1.2v-8c0-.9.4-1.7 1-2.5.1-.2.3-.3.4-.4.2-.1.3-.3.5-.4 1.4-1 3.4-1.6 5.6-1.6 1.7 0 3.2.4 4.4 1 .4.2.8.4 1.1.7.4.2.7.5.9.8.6.7 1 1.6 1 2.5v8c0 .4-.1.8-.2 1.2 0 .1-.1.2-.1.3-.1.2-.2.5-.4.8z"/><ellipse fill="#90695E" cx="268.4" cy="-289.3" rx="5.9" ry="3.8"/></g><path fill="#DB5012" d="M1515.8 399.5s.3-7.3 3.1-7.3 5.3-3.4 5.3-3.4 7.6 1.1 7.6 2.5 3.9 3.9 3.9 5.1v4.2h-20v-1.1h.1z"/><path fill="#EF5B0E" d="M1535.8 400.3v-4c0-1.1-3.9-3.7-3.9-5.1 0-1.1-4.3-2-6.5-2.3l1.7 5.7s3.5 4.5 4.8 5.9h2.9c.3 0 .6-.1 1-.2z"/><path fill="#DB5012" d="M1435 429.7s.3-7.3 3.1-7.3 5.3-3.4 5.3-3.4 7.6 1.1 7.6 2.5 3.9 3.9 3.9 5.1v4.2h-20v-1.1h.1z"/><path fill="#EF5B0E" d="M1455 430.6v-4c0-1.1-3.9-3.7-3.9-5.1 0-1.1-4.3-2-6.5-2.3l1.7 5.7s3.5 4.5 4.8 5.9h2.9c.3 0 .6-.1 1-.2z"/><path fill="#DB5012" d="M1562.8 407.8h-32.6v-12.9l9-7.9h9.6l5.1 3.9s2.8 1.1 6.7 1.1 8.4 2.8 8.4 2.8v2.2l2.8 5.1-2.8 5.7h-6.2z"/><path fill="#EF5B0E" d="M1569 407.8l2.8-5.6-2.8-5.1v-2.2s-4.5-2.8-8.4-2.8-6.7-1.1-6.7-1.1l-3.5-2.7.1 1.6 12.4 18 6.1-.1z"/><path fill="#DB5012" d="M1436 442.8h-32.6v-12.9l9-7.9h9.6l5.1 3.9s2.8 1.1 6.7 1.1 8.4 2.8 8.4 2.8v2.2l2.8 5.1-2.8 5.6-6.2.1z"/><path fill="#EF5B0E" d="M1442.2 442.8l2.8-5.6-2.8-5.1v-2.2s-4.5-2.8-8.4-2.8-6.8-1.2-6.8-1.2l-3.5-2.7.1 1.6 12.4 18h6.2z"/><path fill="#DB5012" d="M1392.1 447.6s.3-7.3 3.1-7.3 5.3-3.4 5.3-3.4 7.6 1.1 7.6 2.5 3.9 3.9 3.9 5.1v4.2h-20l.1-1.1z"/><path fill="#EF5B0E" d="M1412.1 448.4v-4c0-1.1-3.9-3.7-3.9-5.1 0-1.1-4.3-2-6.5-2.3l1.7 5.7s3.5 4.5 4.8 5.9h2.9c.3 0 .7-.1 1-.2z"/><path fill="#DD6310" d="M231.6 469.5c4.2-.4 7.1-.7 9-1 7.1-1-.4-1.5-9-3.1l-2-3c0-7.7 8.1-11 15.9-11.3 13.8-.4 27.2.1 27.2.1s61.2-9.3 77.3 4.3c2.2 1.8 3.5 4.1 3.8 6.9 1.9 21-71.2 19-111.6 17.9-6-.2-10.6-5-10.6-10.8z"/><path fill="#DB5012" d="M1523.3 430.8h-39.7V415l11-9.6h11.6l6.2 4.8s3.4 1.4 8.2 1.4 10.2 3.4 10.2 3.4v2.7l3.4 6.2-3.4 6.9h-7.5z"/><path fill="#EF5B0E" d="M1530.8 430.8l3.4-6.9-3.4-6.2V415s-5.5-3.4-10.3-3.4-8.2-1.4-8.2-1.4l-4.3-3.3.2 2 15.1 21.9h7.5z"/><path fill="#DB5012" d="M1107.52 409.527s.2-6.4 2.7-6.4 4.7-3 4.7-3 6.7 1 6.7 2.2 3.4 3.4 3.4 4.4v3.7h-17.5v-.9z"/><path fill="#EF5B0E" d="M1125.02 410.227v-3.5c0-1-3.4-3.2-3.4-4.4 0-.9-3.8-1.7-5.7-2.1l1.5 5s3.1 3.9 4.2 5.2h2.5c.3 0 .6-.1.9-.2z"/><path fill="#DB5012" d="M1123.307 411.094s.1-2.7 1.1-2.7 2-1.2 2-1.2 2.8.4 2.8.9 1.4 1.4 1.4 1.9v1.5h-7.3v-.4z"/><path fill="#EF5B0E" d="M1130.607 411.394v-1.4c0-.4-1.4-1.3-1.4-1.9 0-.4-1.6-.7-2.4-.9l.6 2.1s1.3 1.7 1.8 2.2h1.1c.1 0 .2 0 .3-.1z"/><path fill="#DB5012" d="M1126.465 418.957s.1-3.8 1.6-3.8 2.8-1.7 2.8-1.7 3.9.6 3.9 1.3 2 2 2 2.6v2.2h-10.3v-.6z"/><path fill="#EF5B0E" d="M1136.765 419.457v-2c0-.6-2-1.9-2-2.6 0-.5-2.2-1-3.3-1.2l.9 2.9s1.8 2.3 2.5 3h1.5c.1 0 .2-.1.4-.1z"/><path fill="#DB5012" d="M1117.592 415.103s.1-2.5 1-2.5c1 0 1.8-1.1 1.8-1.1s2.6.4 2.6.9 1.3 1.3 1.3 1.7v1.3h-6.8v-.3h.1z"/><path fill="#EF5B0E" d="M1124.292 415.403v-1.4c0-.4-1.3-1.2-1.3-1.7 0-.4-1.5-.7-2.2-.8l.6 1.9 1.6 2h1.3z"/><path fill="#DB5012" d="M926.493 442.384s.4-11.5 4.9-11.5c4.4 0 8.4-5.3 8.4-5.3s11.9 1.8 11.9 4 6.2 6.2 6.2 7.9v6.6h-31.3l-.1-1.7z"/><path fill="#EF5B0E" d="M957.893 443.784v-6.2c0-1.8-6.2-5.7-6.2-7.9 0-1.7-6.8-3.1-10.1-3.7l2.6 9s5.5 7.1 7.6 9.3h4.5c.5-.3 1-.4 1.6-.5z"/><path fill="#DB5012" d="M949.648 447.568s.2-5.3 2.2-5.3 3.9-2.5 3.9-2.5 5.5.8 5.5 1.8 2.9 2.9 2.9 3.7v3.1h-14.5v-.8z"/><path fill="#EF5B0E" d="M964.148 448.168v-2.9c0-.8-2.9-2.7-2.9-3.7 0-.8-3.2-1.4-4.7-1.7l1.2 4.2s2.5 3.3 3.5 4.3h2.1c.3-.1.6-.1.8-.2z"/><path fill="#DB5012" d="M915.768 445.613s.2-5.1 2.1-5.1c2 0 3.7-2.3 3.7-2.3s5.3.8 5.3 1.8 2.7 2.7 2.7 3.5v2.9h-13.9v-.8h.1z"/><path fill="#EF5B0E" d="M929.668 446.213v-2.8c0-.8-2.7-2.5-2.7-3.5 0-.7-3-1.4-4.5-1.6l1.2 4s2.4 3.1 3.4 4.1h2c.1-.1.3-.2.6-.2z"/><path fill="#F27210" d="M229.6 466.5c4.2-.4 7.1-.7 9-1 7.1-1-.4-1.5-9-3.1 0-7.7 6.1-14 13.9-14.3 13.8-.4 27.2.1 27.2.1s61.2-9.3 77.3 4.3c2.2 1.8 3.5 4.1 3.8 6.9 1.9 21-71.2 19-111.6 17.9-6-.2-10.6-5-10.6-10.8z"/><path fill="#90695E" d="M297.464 424.608h-19.7l4.5-7.4a5.99 5.99 0 0 1 10.6 0l4.6 7.4z"/><path fill="#F9C385" d="M265.064 452.008v2.5l9.1 3.5 13.4 2.7 13.6-2.8 9-3.7v-2.3l-45.1.1zm43.7-8.9l-.4-.6-1.2-2-.3-.6-9.4-15.3h-19.7l-9.4 15.4-.3.5-.5.7-.3.5-.5.8-.3.6-1.4 2.3h45.1l-1.4-2.3z"/><path fill="#FED99C" d="M310.064 445.308l-1.3-2.2-.4-.6-1.2-1.9-.3-.6-9.4-15.3h-9.9v36l13.6-2.8 9-3.6v-9h-.1z"/><path fill="#FFEACC" d="M293.864 439.308c0 1.4-1.3 2.5-2.9 2.5h-6.7c-1.6 0-2.9-1.1-2.9-2.5v-6.6c0-1.4 1.3-2.5 2.9-2.5h6.7c1.6 0 2.9 1.1 2.9 2.5v6.6z"/><path fill="#90695E" d="M290.764 436.308c0 .4-.3.7-.7.7h-5c-.4 0-.7-.3-.7-.7v-2.3c0-.4.3-.7.7-.7h5c.4 0 .7.3.7.7v2.3z"/><path fill="#F27210" d="M285.064 434.008h5v2.3h-5v-2.3z"/><path fill="#90695E" d="M265.064 452.008l-6.5 14.9h3.1l13-8.8-9.6-6.1zm.9 3.2l4.5 2.9-2.5 1.7-3.2-1.9 1.2-2.7zm-1.9 4.6l2.2 1.3-3.9 2.7 1.7-4zm36.7-1.7l13 8.8h3.1l-6.5-14.9-9.6 6.1zm9.7-.1l-3.2 1.9-2.5-1.7 4.5-2.9 1.2 2.7zm2.5 5.7l-3.9-2.7 2.2-1.3 1.7 4z"/><path fill="#90695E" d="M311.564 465.508h6.5v2.2h-6.5v-2.2zm-26.1-9.8h4.2v13.3h-4.2v-13.3z"/><path fill="#90695E" d="M283.864 468.408h7.4v2.1h-7.4v-2.1zm-18.8-23h45.6v6.6h-45.6v-6.6zm-8.2 20.1h6.5v2.2h-6.5v-2.2z"/><path fill="#DB5012" d="M250.702 467.306s.3-7.3 3.1-7.3 5.3-3.4 5.3-3.4 7.6 1.1 7.6 2.5 3.9 3.9 3.9 5.1v4.2h-20v-1.1h.1z"/><path fill="#EF5B0E" d="M270.702 468.206v-4c0-1.1-3.9-3.7-3.9-5.1 0-1.1-4.3-2-6.5-2.3l1.7 5.7s3.5 4.5 4.8 5.9h2.9c.3 0 .6-.1 1-.2z"/><path fill="#DB5012" d="M263.932 470.47s.2-4.8 2-4.8 3.5-2.2 3.5-2.2 5 .7 5 1.7 2.6 2.6 2.6 3.3v2.8h-13.1v-.8z"/><path fill="#EF5B0E" d="M276.932 471.07v-2.6c0-.7-2.6-2.4-2.6-3.3 0-.7-2.9-1.3-4.2-1.5l1.1 3.7s2.3 2.9 3.2 3.9h1.9c.2-.1.4-.1.6-.2z"/><path fill="#F59024" d="M2450 535.9c-266.9-18.8-473.7 178.5-777.1 175.8-352.1 3.2-574.1-263.2-911.2-148.2-328 112-520.7 110.4-530.8 110.2h-3.5c-27.5 0-216.9-4.1-527.7-110.2-59.9-20.4-116.2-28.8-170.2-28.8-26.1 0-51.7 2-76.8 5.5v280.1H2450V535.9z"/><circle fill="#24243A" cx="439" cy="-45" r="3.5"/><circle fill="#24243A" cx="1410" cy="-72" r="3.5"/><circle fill="#24243A" cx="1548" r="3.5"/><ellipse transform="rotate(-64.036 637.535 -34.513)" fill="#C2CED3" cx="637.553" cy="-34.507" rx="2.5" ry="2.5"/><ellipse transform="rotate(-64.036 1597.484 -114.554)" fill="#C2CED3" cx="1597.529" cy="-114.541" rx="2.5" ry="2.5"/><ellipse transform="rotate(-64.036 397.553 105.492)" fill="#C2CED3" cx="397.563" cy="105.499" rx="2.5" ry="2.5"/><ellipse transform="rotate(-64.036 777.53 15.478)" fill="#C2CED3" cx="777.552" cy="15.487" rx="1.5" ry="1.5"/><ellipse transform="rotate(-64.036 1587.494 85.435)" fill="#C2CED3" cx="1587.537" cy="85.454" rx="1.5" ry="1.5"/><ellipse transform="rotate(-64.036 347.553 45.497)" fill="#C2CED3" cx="347.563" cy="45.502" rx="1.5" ry="1.5"/><path fill="#24243A" d="M557-144.5v11m5.5-5.5h-11m785.5 36.5v7m3.5-3.5h-7"/><circle fill="#24243A" cx="928" cy="-113.5" r="3.5"/><ellipse transform="rotate(-64.036 958.345 50.907)" fill="#C2CED3" cx="958.371" cy="50.918" rx="2.5" ry="2.5"/><ellipse transform="rotate(-64.036 1067.515 -34.533)" fill="#24243A" cx="1067.544" cy="-34.523" rx="1.5" ry="1.5"/><circle fill="#1D2D38" cx="409" cy="-85" r="1.5"/><ellipse transform="rotate(-64.036 1417.5 5.449)" fill="#24243A" cx="1417.538" cy="5.463" rx="1.5" ry="1.5"/><circle fill="#1D2D38" cx="469" cy="75" r="1.5"/><ellipse transform="rotate(-64.036 1187.515 115.454)" fill="#1D2D38" cx="1187.547" cy="115.469" rx="1.5" ry="1.5"/><ellipse transform="rotate(-64.036 967.513 -144.523)" fill="#24243A" cx="967.542" cy="-144.517" rx="1.5" ry="1.5"/><path opacity=".3" fill="#24243A" d="M695.3-95.3l144.4-43.3M695.3-95.3l143.9-45.3c1.1-.3 2.2.3 2.5 1.3s-.3 2.2-1.3 2.5h-.1l-145 41.5z"/><path fill="#E86E00" d="M1150.028 389.205h-143.915a2.028 2.028 0 0 0 0 4.056h143.915a2.027 2.027 0 1 0 0-4.056z"/><path fill="#DB5012" d="M1055.295 397.342s.4-2.4 1.3-2.3c.9.1 1.9-.9 1.9-.9s2.5.6 2.5 1.1c-.1.5 1.2 1.5 1.1 1.8 0 .4-.2 1.4-.2 1.4l-6.7-.7.1-.4z"/><path fill="#EF5B0E" d="M1061.995 398.342c0-.3.1-1 .1-1.3 0-.4-1.2-1.4-1.1-1.8 0-.4-1.4-.8-2.1-1l.4 2s1 1.6 1.4 2.2l1 .1c.1-.2.2-.2.3-.2z"/><g transform="translate(774.571 615.638)"><path fill="#90695E" d="M274.1-236.007c0 5.6-3.2 10.2-7.2 11h-.1.1c-4.1.9-11.2.7-14.5 0-.1 0-.2 0-.4-.1-.4-.1-.8-.2-1.2-.4-.5-.2-1-.5-1.4-.8-.2-.2-.4-.3-.6-.5-.3-.3-.6-.5-.8-.9-.2-.2-.3-.4-.5-.6l-.6-.9c-.1-.2-.3-.5-.4-.7-.2-.3-.3-.7-.5-1.1-.1-.3-.2-.5-.3-.8-.1-.4-.2-.8-.3-1.3-.1-.3-.1-.6-.2-.9-.1-.5-.1-1.1-.1-1.6v-1c0-.5.1-1.1.1-1.6 0-.3.1-.6.2-.9.1-.4.2-.9.3-1.3.1-.3.2-.5.3-.8.1-.4.3-.7.5-1.1.1-.2.3-.5.4-.7l.6-.9c.2-.2.3-.4.5-.6l.9-.9c.2-.2.4-.4.6-.5.4-.3.9-.6 1.4-.8.4-.2.8-.3 1.3-.4.1 0 .3 0 .4-.1 3.3-.7 10.1-.8 14.2 0 4.1.9 7.3 5.5 7.3 11.2z"/><path fill="#623A2F" d="M274.1-236.007c0 5.6-3.2 10.2-7.2 11h-.3c-.3 0-.6.1-.9.1h-1.2c-.1 0-.2 0-.3-.1-.1 0-.2 0-.3-.1l-.9-.3c-.1 0-.2-.1-.3-.2-.3-.1-.5-.3-.7-.4-.1-.1-.2-.1-.3-.2-.1-.1-.2-.1-.3-.2-.1-.1-.2-.2-.3-.2l-.6-.6c-.1-.1-.1-.2-.2-.2l-.2-.2-.1-.1c-.1-.1-.1-.2-.2-.3-.1-.1-.1-.2-.2-.2-.1-.1-.2-.2-.2-.3-.1-.1-.1-.2-.2-.4-.1-.1-.1-.2-.2-.3-.1-.1-.1-.2-.2-.4s-.2-.3-.3-.5c-.1-.1-.1-.3-.2-.4 0-.1 0-.1-.1-.2s-.1-.3-.2-.4c0-.1-.1-.3-.1-.4 0-.1 0-.1-.1-.2-.1-.2-.1-.5-.2-.8 0-.1 0-.2-.1-.3v-.1c0-.1-.1-.2-.1-.4s-.1-.3-.1-.5-.1-.4-.1-.6v-3.1c0-.2 0-.4.1-.5 0-.2 0-.3.1-.5 0-.2.1-.3.1-.4s0-.2.1-.3c.1-.2.1-.5.2-.7 0-.1.1-.2.1-.3.1-.3.2-.5.3-.8 0-.1.1-.2.1-.3 0-.1.1-.2.1-.2.1-.2.2-.4.3-.5.1-.1.1-.2.2-.4.1-.1.1-.2.2-.4s.3-.5.4-.7l.1-.1.1-.1c.1-.1.2-.2.2-.3.1-.1.2-.2.2-.3.1-.1.1-.2.2-.2l.2-.2.2-.2.2-.2.3-.3c.1-.1.2-.2.3-.2.1-.1.2-.2.3-.2.1-.1.2-.1.3-.2.2-.1.5-.2.7-.4.1 0 .2-.1.3-.1s.2-.1.3-.1.2-.1.3-.1.2-.1.3-.1.2 0 .3-.1h1c.4 0 .7 0 1.1.1 4.5.5 7.7 5.1 7.7 10.8z"/><path opacity=".48" fill="#BA9E7E" d="M304.7-236.007c0 5.6-3.2 10.2-7.2 11h-.3c-.3 0-.6.1-.9.1h-1.2c-.1 0-.2 0-.3-.1-.1 0-.2 0-.3-.1l-.9-.3c-.1 0-.2-.1-.3-.2-.3-.1-.5-.3-.7-.4-.1-.1-.2-.1-.3-.2-.1-.1-.2-.1-.3-.2-.1-.1-.2-.2-.3-.2l-.6-.6c-.1-.1-.1-.2-.2-.2l-.2-.2-.1-.1c-.1-.1-.1-.2-.2-.3-.1-.1-.1-.2-.2-.2-.1-.1-.2-.2-.2-.3-.1-.1-.2-.2-.2-.4-.1-.1-.1-.2-.2-.3-.1-.1-.1-.2-.2-.4s-.2-.3-.3-.5c-.1-.1-.1-.3-.2-.4 0-.1 0-.1-.1-.2s-.1-.3-.1-.4c0-.1-.1-.3-.1-.4 0-.1-.1-.2-.1-.3-.1-.3-.2-.6-.2-1v-.1c0-.1-.1-.2-.1-.4s-.1-.3-.1-.5-.1-.4-.1-.6v-3.1c0-.2 0-.4.1-.5 0-.2 0-.3.1-.5 0-.2.1-.3.1-.4s0-.2.1-.3c.1-.2.1-.5.2-.7 0-.1.1-.2.1-.3.1-.3.2-.5.3-.8 0-.1.1-.2.1-.3 0-.1.1-.2.1-.2.1-.2.2-.4.3-.5.1-.1.1-.2.2-.4.1-.1.1-.2.2-.4s.3-.5.4-.7l.1-.1.1-.1c.1-.1.2-.2.2-.3l.3-.3c.1-.1.1-.2.2-.2l.2-.2.2-.2.2-.2.3-.3c.1-.1.2-.2.3-.2.1-.1.2-.2.3-.2.3-.2.7-.4 1.1-.6.1 0 .2-.1.3-.1s.2-.1.3-.1.2-.1.3-.1.2-.1.3-.1.2 0 .3-.1h.9c.4 0 .7 0 1.1.1 4.2.5 7.4 5.1 7.4 10.8z"/><path fill="#FED99C" d="M366.2-256.407v7l-9.7 11.8h-54.6l2.9-33.1h51.7l9.7 14.3z"/><path fill="#CBB8BE" d="M312-256.407h54.2v6.9H312v-6.9z"/><linearGradient id="d" gradientUnits="userSpaceOnUse" x1="-772.567" y1="396.917" x2="-772.567" y2="397.917" gradientTransform="matrix(64.337 0 0 -11.865 50038.68 4471.854)"><stop offset=".018" stop-color="#cca498"/><stop offset=".593" stop-color="#b99b97"/><stop offset="1" stop-color="#a99396"/></linearGradient><path fill="url(#d)" d="M366.2-249.407l-9.7 11.8h-54.6l1-11.8h63.3z"/><path fill="#AE7E60" d="M357.6-233.807h-91.7l-2.2-3.8h93.9v3.8z"/><linearGradient id="e" gradientUnits="userSpaceOnUse" x1="-768.657" y1="365.278" x2="-767.657" y2="365.278" gradientTransform="matrix(81.59 0 0 -40.289 62945.148 14458.967)"><stop offset="0" stop-color="#f8faef"/><stop offset=".364" stop-color="#f6ebd6"/><stop offset=".824" stop-color="#f0d7b9"/><stop offset="1" stop-color="#eecfad"/></linearGradient><path fill="url(#e)" d="M312-256.407v7l-10.1 11.8h-59.4l-12.1-11.8v-7l12.1-21.4h59.4l10.1 21.4z"/><path fill="#90695E" d="M278.4-275.807h-32.9c-1.1 0-2.4.8-3 1.7l-7.9 14c-.5 1-.1 1.7 1 1.7h42.8c1.1 0 2-.9 2-2v-13.4c0-1.1-.9-2-2-2zm29.4 15.6l-3.2-6.8-3.3-7.1c-.5-1-1.8-1.8-2.9-1.8h-12c-1.1 0-2 .9-2 2v13.5c0 1.1.9 2 2 2h20.2c1.2 0 1.7-.8 1.2-1.8zm-29.4 12.8h-41.3c-1.1 0-1.4.6-.6 1.4l5.2 5.1c.8.8 2.3 1.4 3.4 1.4h33.3c1.1 0 2-.9 2-2v-3.9c0-1.1-.9-2-2-2zm27.1 0h-19.1c-1.1 0-2 .9-2 2v3.9c0 1.1.9 2 2 2h12.3c1.1 0 2.6-.7 3.3-1.5l4.1-4.8c.8-.9.5-1.6-.6-1.6z"/><path fill="#EDD4BD" d="M230.4-256.407H312v6.9h-81.6v-6.9z"/><linearGradient id="f" gradientUnits="userSpaceOnUse" x1="-797.353" y1="364.781" x2="-797.353" y2="365.781" gradientTransform="matrix(29.397 0 0 -40.283 23737.092 14456.853)"><stop offset=".006" stop-color="#9f7664"/><stop offset=".372" stop-color="#b2876b"/><stop offset="1" stop-color="#dbac7a"/></linearGradient><path opacity=".4" fill="url(#f)" d="M312-256.407v7l-10.1 11.8h-19.3v-40.2h19.3l4 8.6 3.6 7.6 2.5 5.2z"/><linearGradient id="g" gradientUnits="userSpaceOnUse" x1="-896.793" y1="370.312" x2="-896.793" y2="371.312" gradientTransform="matrix(9.248 0 0 -28.522 8603.395 10319.89)"><stop offset="0" stop-color="#a99396"/><stop offset=".635" stop-color="#d5bea3"/><stop offset=".982" stop-color="#e8d1a9"/></linearGradient><path opacity=".44" fill="url(#g)" d="M306.8-270.707l7.7 14.3v7l-2 7.2-4-3.2 3.5-4v-7l-6.8-14.3h1.6z"/><path fill="#9E7C6A" d="M309-247.007c-.3-.1-.7-.1-1.1-.1-2.4 0-4.6 1.4-6.2 3.5-1.4 2-2.2 4.6-2.2 7.5 0 2.9.8 5.6 2.2 7.5 1.5 2.2 3.7 3.5 6.2 3.5.4 0 .8 0 1.2-.1 4.1-.7 7.2-5.4 7.2-11 .1-5.5-3.1-10.1-7.3-10.8zm-.1 20.5c-.3.1-.6.1-.9.1-1.9 0-3.6-1-4.9-2.9-1.3-1.8-2-4.2-2-6.7s.7-4.9 2-6.7c1.3-1.9 3.1-2.9 4.9-2.9.3 0 .6 0 .8.1 3.5.6 6.1 4.7 6.1 9.5s-2.6 8.9-6 9.5z"/><path fill="none" d="M314.9-236.007c0 4.8-2.6 8.9-6 9.5-.3.1-.6.1-.9.1-1.9 0-3.6-1-4.9-2.9-1.3-1.8-2-4.2-2-6.7s.7-4.9 2-6.7c1.3-1.9 3.1-2.9 4.9-2.9.3 0 .6 0 .8.1 3.4.6 6.1 4.6 6.1 9.5z"/><path fill="#623A2F" d="M314.9-236.007c0 4.8-2.6 8.9-6 9.5-.3.1-.6.1-.9.1-.9 0-1.7-.2-2.5-.6-.9-.5-1.7-1.3-2.5-2.3-1.3-1.8-2-4.2-2-6.7s.7-4.9 2-6.7c.7-1 1.5-1.8 2.5-2.3.8-.4 1.6-.6 2.5-.6.3 0 .6 0 .8.1 3.4.6 6.1 4.6 6.1 9.5z"/><path fill="#90695E" d="M312.5-236.007c0 4.5-2.4 8.3-5.6 8.9-.3.1-.5.1-.8.1h-.5c-.9-.5-1.7-1.3-2.5-2.3-1.3-1.8-2-4.2-2-6.7s.7-4.9 2-6.7c.7-1 1.5-1.8 2.5-2.3h.5c.3 0 .5 0 .8.1 3.1.5 5.6 4.4 5.6 8.9z"/><path fill="#623A2F" d="M305.5-232.907c-.6 0-1.2-.3-1.6-.9-.4-.6-.6-1.3-.6-2.1s.2-1.6.6-2.1c.4-.6 1-.9 1.6-.9h.3c1.1.2 2 1.5 2 3s-.8 2.8-1.9 3h-.4z"/><path fill="#623A2F" d="M309.1-225.007c-4.1.9-11.2.7-14.5 0-.1 0-.2 0-.4-.1-.4-.1-.8-.2-1.2-.4-.5-.2-1-.5-1.4-.8-.2-.2-.4-.3-.6-.5-.3-.3-.6-.5-.8-.9-.2-.2-.3-.4-.5-.6l-.6-.9c-.1-.2-.3-.5-.4-.7-.2-.3-.3-.7-.5-1.1-.1-.3-.2-.5-.3-.8-.1-.4-.2-.8-.3-1.3-.1-.3-.1-.6-.2-.9-.1-.5-.1-1.1-.1-1.6v-1c0-.5.1-1.1.1-1.6 0-.3.1-.6.2-.9.1-.4.2-.9.3-1.3.1-.3.2-.5.3-.8.1-.4.3-.7.5-1.1.1-.2.3-.5.4-.7l.6-.9c.2-.2.3-.4.5-.6l.9-.9c.2-.2.4-.4.6-.5.4-.3.9-.6 1.4-.8.4-.2.8-.3 1.3-.4.1 0 .3 0 .4-.1 3.3-.7 10.1-.8 14.2 0-.3-.1-.7-.1-1.1-.1-.4 0-.9 0-1.3.1s-.9.2-1.3.4c-.5.2-1 .5-1.4.8-.2.2-.4.3-.6.5-.3.3-.6.5-.9.9-.2.2-.3.4-.5.6-.1.1-.1.2-.2.3-.1.2-.3.4-.4.7-.1.2-.3.5-.4.7-.2.3-.3.7-.5 1.1-.1.3-.2.5-.3.8-.1.4-.2.8-.3 1.3-.1.3-.1.6-.2.9-.1.5-.1 1.1-.1 1.6v1c0 .5.1 1.1.1 1.6 0 .3.1.6.2.9.1.4.2.9.3 1.3.1.3.2.5.3.8.1.4.3.7.5 1.1.1.2.3.5.4.7.1.2.3.5.4.7.1.1.1.2.2.2.2.2.3.4.5.6l.9.9c.2.2.4.4.6.5.4.3.9.6 1.4.8.4.2.8.3 1.2.4.4.1.9.2 1.4.2s.8-.1 1.2-.1z"/><path fill="#9E7C6A" d="M369.3-247.007c-.3-.1-.7-.1-1.1-.1-2.4 0-4.6 1.4-6.2 3.5-1.4 2-2.2 4.6-2.2 7.5 0 2.9.8 5.6 2.2 7.5 1.5 2.2 3.7 3.5 6.2 3.5.4 0 .8 0 1.2-.1 4.1-.7 7.2-5.4 7.2-11 0-5.5-3.2-10.1-7.3-10.8zm-.2 20.5c-.3.1-.6.1-.9.1-1.9 0-3.6-1-4.9-2.9-1.3-1.8-2-4.2-2-6.7s.7-4.9 2-6.7c1.3-1.9 3.1-2.9 4.9-2.9.3 0 .6 0 .8.1 3.5.6 6.1 4.7 6.1 9.5s-2.6 8.9-6 9.5z"/><path fill="none" d="M375.1-236.007c0 4.8-2.6 8.9-6 9.5-.3.1-.6.1-.9.1-1.9 0-3.6-1-4.9-2.9-1.3-1.8-2-4.2-2-6.7s.7-4.9 2-6.7c1.3-1.9 3.1-2.9 4.9-2.9.3 0 .6 0 .8.1 3.5.6 6.1 4.6 6.1 9.5z"/><path fill="#623A2F" d="M375.1-236.007c0 4.8-2.6 8.9-6 9.5-.3.1-.6.1-.9.1-.9 0-1.7-.2-2.5-.6-.9-.5-1.7-1.3-2.5-2.3-1.3-1.8-2-4.2-2-6.7s.7-4.9 2-6.7c.7-1 1.5-1.8 2.5-2.3.8-.4 1.6-.6 2.5-.6.3 0 .6 0 .8.1 3.5.6 6.1 4.6 6.1 9.5z"/><path fill="#90695E" d="M372.7-236.007c0 4.5-2.4 8.3-5.6 8.9-.3.1-.6.1-.8.1h-.5c-.9-.5-1.7-1.3-2.5-2.3-1.3-1.8-2-4.2-2-6.7s.7-4.9 2-6.7c.7-1 1.5-1.8 2.5-2.3h.5c.3 0 .5 0 .8.1 3.1.5 5.6 4.4 5.6 8.9z"/><path fill="#623A2F" d="M365.7-232.907c-.6 0-1.2-.3-1.6-.9-.4-.6-.6-1.3-.6-2.1s.2-1.6.6-2.1c.4-.6 1-.9 1.6-.9h.3c1.1.2 2 1.5 2 3s-.8 2.8-1.9 3h-.4z"/><path fill="#623A2F" d="M369.3-225.007c-4.1.9-11.2.7-14.5 0-.1 0-.2 0-.4-.1-.4-.1-.8-.2-1.2-.4-.5-.2-1-.5-1.4-.8-.2-.2-.4-.3-.6-.5-.3-.3-.6-.5-.8-.9-.2-.2-.3-.4-.5-.6l-.6-.9c-.1-.2-.3-.5-.4-.7-.2-.3-.3-.7-.5-1.1-.1-.3-.2-.5-.3-.8-.1-.4-.2-.8-.3-1.3-.1-.3-.1-.6-.2-.9-.1-.5-.1-1.1-.1-1.6v-1c0-.5.1-1.1.1-1.6 0-.3.1-.6.2-.9.1-.4.2-.9.3-1.3.1-.3.2-.5.3-.8.1-.4.3-.7.5-1.1.1-.2.3-.5.4-.7l.6-.9c.2-.2.3-.4.5-.6l.9-.9c.2-.2.4-.4.6-.5.5-.3.9-.6 1.4-.8.4-.2.8-.3 1.3-.4.1 0 .3 0 .4-.1 3.3-.7 10.1-.8 14.2 0-.3-.1-.7-.1-1.1-.1-.4 0-.9 0-1.3.1s-.9.2-1.3.4c-.5.2-1 .5-1.4.8-.2.2-.4.3-.6.5-.3.3-.6.5-.9.9-.2.2-.3.4-.5.6-.1.1-.1.2-.2.3-.2.2-.3.4-.4.7-.1.2-.3.5-.4.7-.2.3-.3.7-.5 1.1-.1.3-.2.5-.3.8-.1.4-.2.8-.3 1.3-.1.3-.1.6-.2.9-.1.5-.1 1.1-.1 1.6v1c0 .5.1 1.1.1 1.6 0 .3.1.6.2.9.1.4.2.9.3 1.3.1.3.2.5.3.8.1.4.3.7.5 1.1.1.2.3.5.4.7.1.2.3.5.4.7.1.1.1.2.2.2.2.2.3.4.5.6l.9.9c.2.2.4.4.6.5.4.3.9.6 1.4.8.4.2.8.3 1.2.4.4.1.9.2 1.4.2s.9-.1 1.2-.1z"/><path fill="#9E7C6A" d="M339.2-247.007c-.3-.1-.7-.1-1.1-.1-2.4 0-4.6 1.4-6.2 3.5-1.4 2-2.2 4.6-2.2 7.5 0 2.9.8 5.6 2.2 7.5 1.5 2.2 3.7 3.5 6.2 3.5.4 0 .8 0 1.2-.1 4.1-.7 7.2-5.4 7.2-11 0-5.5-3.2-10.1-7.3-10.8zm-.2 20.5c-.3.1-.6.1-.9.1-1.9 0-3.6-1-4.9-2.9-1.3-1.8-2-4.2-2-6.7s.7-4.9 2-6.7c1.3-1.9 3.1-2.9 4.9-2.9.3 0 .5 0 .8.1 3.5.6 6.1 4.7 6.1 9.5s-2.6 8.9-6 9.5z"/><path fill="none" d="M345-236.007c0 4.8-2.6 8.9-6 9.5-.3.1-.6.1-.9.1-1.9 0-3.6-1-4.9-2.9-1.3-1.8-2-4.2-2-6.7s.7-4.9 2-6.7c1.3-1.9 3.1-2.9 4.9-2.9.3 0 .5 0 .8.1 3.5.6 6.1 4.6 6.1 9.5z"/><path fill="#623A2F" d="M345-236.007c0 4.8-2.6 8.9-6 9.5-.3.1-.6.1-.9.1-.9 0-1.7-.2-2.5-.6-.9-.5-1.7-1.3-2.5-2.3-1.3-1.8-2-4.2-2-6.7s.7-4.9 2-6.7c.7-1 1.5-1.8 2.5-2.3.8-.4 1.6-.6 2.5-.6.3 0 .5 0 .8.1 3.5.6 6.1 4.6 6.1 9.5z"/><path fill="#90695E" d="M342.6-236.007c0 4.5-2.4 8.3-5.6 8.9-.3.1-.6.1-.8.1h-.5c-.9-.5-1.7-1.3-2.5-2.3-1.3-1.8-2-4.2-2-6.7s.7-4.9 2-6.7c.7-1 1.5-1.8 2.5-2.3h.5c.3 0 .5 0 .8.1 3.2.5 5.6 4.4 5.6 8.9z"/><path fill="#623A2F" d="M335.7-232.907c-.6 0-1.2-.3-1.6-.9-.4-.6-.6-1.3-.6-2.1s.2-1.6.6-2.1c.4-.6 1-.9 1.6-.9h.3c1.1.2 2 1.5 2 3s-.8 2.8-1.9 3h-.4z"/><path fill="#623A2F" d="M339.3-225.007c-4.1.9-11.2.7-14.5 0-.1 0-.2 0-.4-.1-.4-.1-.8-.2-1.2-.4-.5-.2-1-.5-1.4-.8-.2-.2-.4-.3-.6-.5-.3-.3-.6-.5-.8-.9-.2-.2-.3-.4-.5-.6l-.6-.9c-.1-.2-.3-.5-.4-.7-.2-.3-.3-.7-.5-1.1-.1-.3-.2-.5-.3-.8-.1-.4-.2-.8-.3-1.3-.1-.3-.1-.6-.2-.9-.1-.5-.1-1.1-.1-1.6v-1c0-.5.1-1.1.1-1.6 0-.3.1-.6.2-.9.1-.4.2-.9.3-1.3.1-.3.2-.5.3-.8.1-.4.3-.7.5-1.1.1-.2.3-.5.4-.7l.6-.9c.2-.2.3-.4.5-.6l.9-.9c.2-.2.4-.4.6-.5.4-.3.9-.6 1.4-.8.4-.2.8-.3 1.3-.4.1 0 .3 0 .4-.1 3.3-.7 10.1-.8 14.2 0-.3-.1-.7-.1-1.1-.1-.4 0-.9 0-1.3.1s-.9.2-1.3.4c-.5.2-1 .5-1.4.8-.2.2-.4.3-.6.5-.3.3-.6.5-.9.9-.2.2-.3.4-.5.6-.1.1-.1.2-.2.3-.2.2-.3.4-.4.7-.1.2-.3.5-.4.7-.2.3-.3.7-.5 1.1-.1.3-.2.5-.3.8-.1.4-.3.8-.3 1.3-.1.3-.1.6-.2.9-.1.5-.1 1.1-.1 1.6v1c0 .5.1 1.1.1 1.6 0 .3.1.6.2.9.1.4.2.9.3 1.3.1.3.2.5.3.8.1.4.3.7.5 1.1.1.2.3.5.4.7.1.2.3.5.4.7.1.1.1.2.2.2.2.2.3.4.5.6l.9.9c.2.2.4.4.6.5.4.3.9.6 1.4.8.4.2.8.3 1.2.4.4.1.9.2 1.4.2.4 0 .8-.1 1.2-.1z"/><path opacity=".33" fill="#DEBC95" d="M230.4-256.407h6.7v6.9h-6.7v-6.9zm42.3 0h9.9v6.9h-9.9v-6.9z"/><path opacity=".57" fill="#8B6E5E" d="M283.1-277.807h-9.7c-.3-1.7.3-3.7 1.7-5.4 2.2-2.5 5.6-3.2 7.6-1.4 1.8 1.5 1.9 4.4.4 6.8z"/><path fill="#9E7C6A" d="M284.3-277.807v-1.4l-4.8-1.1v-1h12.7v.9l-4.6 1.2v1.4h-3.3z"/><g transform="translate(16.84 4.21)"><path fill="#8B6E5E" d="M231-283.207h1.4v1.1H231v-1.1z"/><ellipse fill="#8B6E5E" cx="232.2" cy="-284.307" rx="1.3" ry="1.5"/><path fill="#8B6E5E" d="M231.2-285.907h1v3.1h-1v-3.1z"/><ellipse fill="#D7B36A" cx="231.2" cy="-284.307" rx="1.3" ry="1.5"/><path fill="#8B6E5E" d="M234.3-283.207h1.4v1.1h-1.4v-1.1z"/><ellipse fill="#8B6E5E" cx="235.4" cy="-284.307" rx="1.3" ry="1.5"/><path fill="#8B6E5E" d="M234.5-285.907h1v3.1h-1v-3.1z"/><ellipse fill="#D7B36A" cx="234.5" cy="-284.307" rx="1.3" ry="1.5"/><path fill="#8B6E5E" d="M237.5-283.207h1.4v1.1h-1.4v-1.1z"/><ellipse fill="#8B6E5E" cx="238.7" cy="-284.307" rx="1.3" ry="1.5"/><path fill="#8B6E5E" d="M237.7-285.907h1v3.1h-1v-3.1z"/><ellipse fill="#D7B36A" cx="237.7" cy="-284.307" rx="1.3" ry="1.5"/><path fill="#8B6E5E" d="M240.8-283.207h1.4v1.1h-1.4v-1.1z"/><ellipse fill="#8B6E5E" cx="241.9" cy="-284.307" rx="1.3" ry="1.5"/><path fill="#8B6E5E" d="M241-285.907h1v3.1h-1v-3.1z"/><ellipse fill="#D7B36A" cx="241" cy="-284.307" rx="1.3" ry="1.5"/></g><g transform="translate(34.732 4.21)"><path fill="#8B6E5E" d="M231.6-283.207h1.4v1.1h-1.4v-1.1z"/><ellipse fill="#8B6E5E" cx="232.8" cy="-284.307" rx="1.3" ry="1.5"/><path fill="#8B6E5E" d="M231.8-285.907h1v3.1h-1v-3.1z"/><ellipse fill="#D7B36A" cx="231.8" cy="-284.307" rx="1.3" ry="1.5"/><path fill="#8B6E5E" d="M234.9-283.207h1.4v1.1h-1.4v-1.1z"/><ellipse fill="#8B6E5E" cx="236" cy="-284.307" rx="1.3" ry="1.5"/><path fill="#8B6E5E" d="M235.1-285.907h1v3.1h-1v-3.1z"/><ellipse fill="#D7B36A" cx="235.1" cy="-284.307" rx="1.3" ry="1.5"/><path fill="#8B6E5E" d="M238.1-283.207h1.4v1.1h-1.4v-1.1z"/><ellipse fill="#8B6E5E" cx="239.3" cy="-284.307" rx="1.3" ry="1.5"/><path fill="#8B6E5E" d="M238.3-285.907h1v3.1h-1v-3.1z"/><ellipse fill="#D7B36A" cx="238.3" cy="-284.307" rx="1.3" ry="1.5"/><path fill="#8B6E5E" d="M241.4-283.207h1.4v1.1h-1.4v-1.1z"/><ellipse fill="#8B6E5E" cx="242.6" cy="-284.307" rx="1.3" ry="1.5"/><path fill="#8B6E5E" d="M241.6-285.907h1v3.1h-1v-3.1z"/><ellipse fill="#D7B36A" cx="241.6" cy="-284.307" rx="1.3" ry="1.5"/></g><ellipse fill="#FAE3A0" cx="233.7" cy="-252.907" rx="2" ry="2"/><ellipse fill="#FAE3A0" cx="277.3" cy="-252.907" rx="2" ry="2"/><path opacity=".6" fill="#D89E64" d="M364.9-258.307h-53.8l-4.6-9.7h51.8l6.6 9.7z"/><path fill="#99766D" d="M280.4-273.807v13.5c0 1.1-.9 2-2 2h-13l10.2-17.5h2.8c1.1 0 2 .9 2 2zm-16.6-2h3.4l-10.5 17.4h-3.3l10.4-17.4zm6 0h3.4l-10.5 17.4h-3.3l10.4-17.4zm36.9 17.4h-7.2l5.1-8.6 3.2 6.8c.5 1 0 1.8-1.1 1.8zm-2.8-10.1l-6.1 10.1h-2.5l7.4-12.5 1.2 2.4z"/></g><path fill="#DB5012" d="M999.966 402.166s.5-12.8 5.4-12.8 9.4-5.9 9.4-5.9 13.3 2 13.3 4.4 6.9 6.9 6.9 8.9v7.4h-35v-2z"/><path fill="#EF5B0E" d="M1034.966 403.666v-6.9c0-2-6.9-6.4-6.9-8.9 0-1.9-7.6-3.4-11.3-4.1l2.9 10s6.1 7.9 8.5 10.3h5c.6-.1 1.2-.3 1.8-.4z"/><path fill="#DB5012" d="M1031.74 404.794s.2-6.4 2.7-6.4 4.7-3 4.7-3 6.7 1 6.7 2.2 3.4 3.4 3.4 4.4v3.7h-17.5v-.9z"/><path fill="#EF5B0E" d="M1049.24 405.494v-3.5c0-1-3.4-3.2-3.4-4.4 0-.9-3.8-1.7-5.7-2.1l1.5 5s3.1 3.9 4.2 5.2h2.5c.3 0 .6-.1.9-.2z"/></svg>